<?xml version="1.0" encoding="UTF-8" standalone="no"?>
<!DOCTYPE svg PUBLIC "-//W3C//DTD SVG 1.1//EN"
 "http://www.w3.org/Graphics/SVG/1.1/DTD/svg11.dtd">
<!-- Generated by graphviz version 8.1.0 (0)
 -->
<!-- Pages: 1 -->
<svg width="3180pt" height="476pt"
 viewBox="0.00 0.00 3179.71 476.00" xmlns="http://www.w3.org/2000/svg" xmlns:xlink="http://www.w3.org/1999/xlink">
<g id="graph0" class="graph" transform="scale(1 1) rotate(0) translate(4 472)">
<polygon fill="white" stroke="none" points="-4,4 -4,-472 3175.71,-472 3175.71,4 -4,4"/>
<!-- cmeel&#45;example -->
<g id="node1" class="node">
<title>cmeel&#45;example</title>
<ellipse fill="none" stroke="black" cx="3077.37" cy="-378" rx="94.34" ry="18"/>
<text text-anchor="middle" x="3077.37" y="-372.95" font-family="Times,serif" font-size="14.00">cmeel&#45;example v0.5.3</text>
</g>
<!-- cmeel -->
<g id="node2" class="node">
<title>cmeel</title>
<ellipse fill="none" stroke="black" cx="1595.37" cy="-450" rx="33.44" ry="18"/>
<text text-anchor="middle" x="1595.37" y="-444.95" font-family="Times,serif" font-size="14.00">cmeel</text>
</g>
<!-- cmeel&#45;&gt;cmeel&#45;example -->
<g id="edge1" class="edge">
<title>cmeel&#45;&gt;cmeel&#45;example</title>
<path fill="none" stroke="black" d="M1629.07,-449.26C1783.62,-450.11 2439.83,-450.17 2974.37,-396 2982.83,-395.14 2991.65,-394.03 3000.41,-392.78"/>
<polygon fill="black" stroke="black" points="3000.67,-396.13 3010.04,-391.2 2999.64,-389.21 3000.67,-396.13"/>
</g>
<!-- cmeel&#45;boost -->
<g id="node3" class="node">
<title>cmeel&#45;boost</title>
<ellipse fill="none" stroke="black" cx="878.37" cy="-378" rx="87.18" ry="18"/>
<text text-anchor="middle" x="878.37" y="-372.95" font-family="Times,serif" font-size="14.00">cmeel&#45;boost v1.82.0</text>
</g>
<!-- cmeel&#45;&gt;cmeel&#45;boost -->
<g id="edge2" class="edge">
<title>cmeel&#45;&gt;cmeel&#45;boost</title>
<path fill="none" stroke="black" d="M1561.88,-447.07C1469.08,-441.53 1200.86,-424.12 979.37,-396 970.84,-394.92 961.93,-393.64 953.09,-392.27"/>
<polygon fill="black" stroke="black" points="953.79,-388.68 943.37,-390.57 952.7,-395.6 953.79,-388.68"/>
</g>
<!-- cmeel&#45;eigen -->
<g id="node5" class="node">
<title>cmeel&#45;eigen</title>
<ellipse fill="none" stroke="black" cx="1337.37" cy="-378" rx="89.74" ry="18"/>
<text text-anchor="middle" x="1337.37" y="-372.95" font-family="Times,serif" font-size="14.00">cmeel&#45;eigen v3.4.0.1</text>
</g>
<!-- cmeel&#45;&gt;cmeel&#45;eigen -->
<g id="edge4" class="edge">
<title>cmeel&#45;&gt;cmeel&#45;eigen</title>
<path fill="none" stroke="black" d="M1565.77,-440.97C1525.53,-430.05 1452.53,-410.25 1399.88,-395.96"/>
<polygon fill="black" stroke="black" points="1400.87,-392.33 1390.3,-393.09 1399.04,-399.09 1400.87,-392.33"/>
</g>
<!-- eigenpy -->
<g id="node6" class="node">
<title>eigenpy</title>
<ellipse fill="none" stroke="black" cx="1337.37" cy="-306" rx="66.19" ry="18"/>
<text text-anchor="middle" x="1337.37" y="-300.95" font-family="Times,serif" font-size="14.00">eigenpy v3.1.0</text>
</g>
<!-- cmeel&#45;&gt;eigenpy -->
<g id="edge7" class="edge">
<title>cmeel&#45;&gt;eigenpy</title>
<path fill="none" stroke="black" d="M1572.8,-436.19C1542.04,-418.78 1485.2,-386.74 1436.37,-360 1416.51,-349.13 1394.29,-337.21 1375.95,-327.44"/>
<polygon fill="black" stroke="black" points="1377.94,-324 1367.47,-322.4 1374.65,-330.18 1377.94,-324"/>
</g>
<!-- hpp&#45;fcl -->
<g id="node7" class="node">
<title>hpp&#45;fcl</title>
<ellipse fill="none" stroke="black" cx="1445.37" cy="-234" rx="63.63" ry="18"/>
<text text-anchor="middle" x="1445.37" y="-228.95" font-family="Times,serif" font-size="14.00">hpp&#45;fcl v2.3.4</text>
</g>
<!-- cmeel&#45;&gt;hpp&#45;fcl -->
<g id="edge10" class="edge">
<title>cmeel&#45;&gt;hpp&#45;fcl</title>
<path fill="none" stroke="black" d="M1616.53,-435.58C1646.03,-417.17 1701.53,-383.7 1751.37,-360 1791.39,-340.97 1819.31,-360.56 1844.37,-324 1853.41,-310.8 1854.91,-300.04 1844.37,-288 1823.22,-263.86 1626.99,-247.08 1517.82,-239.52"/>
<polygon fill="black" stroke="black" points="1518.11,-235.96 1507.89,-238.77 1517.63,-242.95 1518.11,-235.96"/>
</g>
<!-- cmeel&#45;assimp -->
<g id="node8" class="node">
<title>cmeel&#45;assimp</title>
<ellipse fill="none" stroke="black" cx="1517.37" cy="-306" rx="95.88" ry="18"/>
<text text-anchor="middle" x="1517.37" y="-300.95" font-family="Times,serif" font-size="14.00">cmeel&#45;assimp v5.2.5.1</text>
</g>
<!-- cmeel&#45;&gt;cmeel&#45;assimp -->
<g id="edge12" class="edge">
<title>cmeel&#45;&gt;cmeel&#45;assimp</title>
<path fill="none" stroke="black" d="M1586.27,-432.43C1572.97,-408.22 1548.07,-362.89 1532.13,-333.87"/>
<polygon fill="black" stroke="black" points="1534.78,-332.43 1526.9,-325.35 1528.64,-335.8 1534.78,-332.43"/>
</g>
<!-- cmeel&#45;octomap -->
<g id="node9" class="node">
<title>cmeel&#45;octomap</title>
<ellipse fill="none" stroke="black" cx="1733.37" cy="-306" rx="102.02" ry="18"/>
<text text-anchor="middle" x="1733.37" y="-300.95" font-family="Times,serif" font-size="14.00">cmeel&#45;octomap v1.9.8.2</text>
</g>
<!-- cmeel&#45;&gt;cmeel&#45;octomap -->
<g id="edge13" class="edge">
<title>cmeel&#45;&gt;cmeel&#45;octomap</title>
<path fill="none" stroke="black" d="M1610.4,-433.53C1634.15,-409.09 1680.59,-361.31 1709.11,-331.96"/>
<polygon fill="black" stroke="black" points="1711.18,-334.82 1715.64,-325.21 1706.16,-329.94 1711.18,-334.82"/>
</g>
<!-- cmeel&#45;urdfdom&#45;headers -->
<g id="node10" class="node">
<title>cmeel&#45;urdfdom&#45;headers</title>
<ellipse fill="none" stroke="black" cx="877.37" cy="-306" rx="126.08" ry="18"/>
<text text-anchor="middle" x="877.37" y="-300.95" font-family="Times,serif" font-size="14.00">cmeel&#45;urdfdom&#45;headers v1.1.0</text>
</g>
<!-- cmeel&#45;&gt;cmeel&#45;urdfdom&#45;headers -->
<g id="edge14" class="edge">
<title>cmeel&#45;&gt;cmeel&#45;urdfdom&#45;headers</title>
<path fill="none" stroke="black" d="M1561.84,-448.53C1453.93,-446.62 1116.92,-437.41 1017.37,-396 994.35,-386.43 994.96,-374.04 974.37,-360 957.67,-348.61 938.29,-337.62 921.26,-328.63"/>
<polygon fill="black" stroke="black" points="923.04,-325.09 912.55,-323.58 919.81,-331.3 923.04,-325.09"/>
</g>
<!-- cmeel&#45;urdfdom -->
<g id="node11" class="node">
<title>cmeel&#45;urdfdom</title>
<ellipse fill="none" stroke="black" cx="756.37" cy="-234" rx="102.02" ry="18"/>
<text text-anchor="middle" x="756.37" y="-228.95" font-family="Times,serif" font-size="14.00">cmeel&#45;urdfdom v3.1.0.3</text>
</g>
<!-- cmeel&#45;&gt;cmeel&#45;urdfdom -->
<g id="edge18" class="edge">
<title>cmeel&#45;&gt;cmeel&#45;urdfdom</title>
<path fill="none" stroke="black" d="M1561.62,-448.81C1490.1,-447.51 1318.75,-439.67 1183.37,-396 1119.4,-375.36 1104.79,-363.45 1050.37,-324 1031.53,-310.35 1032.99,-298.77 1012.37,-288 965.52,-263.54 908.33,-250.36 859.89,-243.27"/>
<polygon fill="black" stroke="black" points="860.44,-239.67 850.06,-241.76 859.48,-246.61 860.44,-239.67"/>
</g>
<!-- cmeel&#45;console&#45;bridge -->
<g id="node12" class="node">
<title>cmeel&#45;console&#45;bridge</title>
<ellipse fill="none" stroke="black" cx="393.37" cy="-306" rx="124.54" ry="18"/>
<text text-anchor="middle" x="393.37" y="-300.95" font-family="Times,serif" font-size="14.00">cmeel&#45;console&#45;bridge v1.0.2.2</text>
</g>
<!-- cmeel&#45;&gt;cmeel&#45;console&#45;bridge -->
<g id="edge19" class="edge">
<title>cmeel&#45;&gt;cmeel&#45;console&#45;bridge</title>
<path fill="none" stroke="black" d="M1561.92,-447.98C1421.08,-443.53 875.76,-424.78 706.37,-396 614.36,-380.37 510.76,-347.85 448.85,-326.75"/>
<polygon fill="black" stroke="black" points="450.12,-323.14 439.53,-323.21 447.85,-329.77 450.12,-323.14"/>
</g>
<!-- cmeel&#45;tinyxml -->
<g id="node13" class="node">
<title>cmeel&#45;tinyxml</title>
<ellipse fill="none" stroke="black" cx="634.37" cy="-306" rx="98.95" ry="18"/>
<text text-anchor="middle" x="634.37" y="-300.95" font-family="Times,serif" font-size="14.00">cmeel&#45;tinyxml v2.6.2.2</text>
</g>
<!-- cmeel&#45;&gt;cmeel&#45;tinyxml -->
<g id="edge20" class="edge">
<title>cmeel&#45;&gt;cmeel&#45;tinyxml</title>
<path fill="none" stroke="black" d="M1561.84,-448.91C1427.92,-448.25 931.36,-442.62 782.37,-396 737.44,-381.94 691.95,-351.65 663.49,-330.33"/>
<polygon fill="black" stroke="black" points="665.94,-327.03 655.87,-323.75 661.7,-332.6 665.94,-327.03"/>
</g>
<!-- pin -->
<g id="node14" class="node">
<title>pin</title>
<ellipse fill="none" stroke="black" cx="1440.37" cy="-162" rx="53.4" ry="18"/>
<text text-anchor="middle" x="1440.37" y="-156.95" font-family="Times,serif" font-size="14.00">pin v2.6.18</text>
</g>
<!-- cmeel&#45;&gt;pin -->
<g id="edge22" class="edge">
<title>cmeel&#45;&gt;pin</title>
<path fill="none" stroke="black" d="M1624.02,-440.31C1652.58,-431.12 1697.26,-415.29 1733.37,-396 1757.84,-382.93 1760.34,-373.87 1784.37,-360 1817.43,-340.91 1841.79,-356.16 1862.37,-324 1870.99,-310.52 1871.94,-300.82 1862.37,-288 1818.65,-229.46 1604.77,-188.63 1499.34,-171.71"/>
<polygon fill="black" stroke="black" points="1499.99,-168.11 1489.57,-170.01 1498.9,-175.03 1499.99,-168.11"/>
</g>
<!-- example&#45;robot&#45;data -->
<g id="node15" class="node">
<title>example&#45;robot&#45;data</title>
<ellipse fill="none" stroke="black" cx="226.37" cy="-90" rx="109.7" ry="18"/>
<text text-anchor="middle" x="226.37" y="-84.95" font-family="Times,serif" font-size="14.00">example&#45;robot&#45;data v4.0.7</text>
</g>
<!-- cmeel&#45;&gt;example&#45;robot&#45;data -->
<g id="edge24" class="edge">
<title>cmeel&#45;&gt;example&#45;robot&#45;data</title>
<path fill="none" stroke="black" d="M1561.65,-448.16C1350.23,-442.84 215.31,-413.53 184.37,-396 143.29,-372.73 126.37,-354.21 126.37,-307 126.37,-307 126.37,-307 126.37,-233 126.37,-184.43 165.97,-140.75 195.33,-115.05"/>
<polygon fill="black" stroke="black" points="197.31,-117.11 202.68,-107.97 192.78,-111.77 197.31,-117.11"/>
</g>
<!-- tsid -->
<g id="node16" class="node">
<title>tsid</title>
<ellipse fill="none" stroke="black" cx="1281.37" cy="-90" rx="50.33" ry="18"/>
<text text-anchor="middle" x="1281.37" y="-84.95" font-family="Times,serif" font-size="14.00">tsid v1.7.0</text>
</g>
<!-- cmeel&#45;&gt;tsid -->
<g id="edge26" class="edge">
<title>cmeel&#45;&gt;tsid</title>
<path fill="none" stroke="black" d="M1561.65,-448.06C1365.5,-442.56 377.81,-414.04 316.37,-396 241.25,-373.95 164.37,-385.28 164.37,-307 164.37,-307 164.37,-307 164.37,-233 164.37,-125.65 986.7,-97.98 1220.21,-92.28"/>
<polygon fill="black" stroke="black" points="1220.29,-95.76 1230.2,-92.02 1220.12,-88.76 1220.29,-95.76"/>
</g>
<!-- eiquadprog -->
<g id="node17" class="node">
<title>eiquadprog</title>
<ellipse fill="none" stroke="black" cx="1137.37" cy="-306" rx="78.48" ry="18"/>
<text text-anchor="middle" x="1137.37" y="-300.95" font-family="Times,serif" font-size="14.00">eiquadprog v1.2.6</text>
</g>
<!-- cmeel&#45;&gt;eiquadprog -->
<g id="edge34" class="edge">
<title>cmeel&#45;&gt;eiquadprog</title>
<path fill="none" stroke="black" d="M1562.08,-446.48C1484.86,-440.25 1295.76,-422.66 1238.37,-396 1206.32,-381.12 1176.91,-352.78 1158.19,-332.06"/>
<polygon fill="black" stroke="black" points="1161.31,-330.18 1152.08,-324.99 1156.06,-334.81 1161.31,-330.18"/>
</g>
<!-- crocoddyl -->
<g id="node18" class="node">
<title>crocoddyl</title>
<ellipse fill="none" stroke="black" cx="88.37" cy="-18" rx="73.87" ry="18"/>
<text text-anchor="middle" x="88.37" y="-12.95" font-family="Times,serif" font-size="14.00">crocoddyl v2.0.0</text>
</g>
<!-- cmeel&#45;&gt;crocoddyl -->
<g id="edge29" class="edge">
<title>cmeel&#45;&gt;crocoddyl</title>
<path fill="none" stroke="black" d="M1561.88,-448.24C1346.81,-443.32 167.66,-415.46 136.37,-396 98.2,-372.27 88.37,-351.94 88.37,-307 88.37,-307 88.37,-307 88.37,-161 88.37,-121.57 88.37,-75.97 88.37,-47.31"/>
<polygon fill="black" stroke="black" points="91.87,-47.49 88.37,-37.49 84.87,-47.49 91.87,-47.49"/>
</g>
<!-- ndcurves -->
<g id="node20" class="node">
<title>ndcurves</title>
<ellipse fill="none" stroke="black" cx="1759.37" cy="-90" rx="70.29" ry="18"/>
<text text-anchor="middle" x="1759.37" y="-84.95" font-family="Times,serif" font-size="14.00">ndcurves v1.3.0</text>
</g>
<!-- cmeel&#45;&gt;ndcurves -->
<g id="edge35" class="edge">
<title>cmeel&#45;&gt;ndcurves</title>
<path fill="none" stroke="black" d="M1628.95,-447.4C1714.72,-442.87 1939.72,-428.19 2006.37,-396 2047.69,-376.04 2062.52,-366.27 2080.37,-324 2131.44,-203.05 1928.41,-133.02 1821.42,-105.15"/>
<polygon fill="black" stroke="black" points="1822.62,-101.59 1812.07,-102.51 1820.89,-108.37 1822.62,-101.59"/>
</g>
<!-- cmeel&#45;cppad -->
<g id="node21" class="node">
<title>cmeel&#45;cppad</title>
<ellipse fill="none" stroke="black" cx="2185.37" cy="-378" rx="109.7" ry="18"/>
<text text-anchor="middle" x="2185.37" y="-372.95" font-family="Times,serif" font-size="14.00">cmeel&#45;cppad v20230000.0</text>
</g>
<!-- cmeel&#45;&gt;cmeel&#45;cppad -->
<g id="edge37" class="edge">
<title>cmeel&#45;&gt;cmeel&#45;cppad</title>
<path fill="none" stroke="black" d="M1628.17,-445.53C1704.31,-437.42 1898.98,-416.36 2061.37,-396 2071.72,-394.7 2082.54,-393.29 2093.31,-391.86"/>
<polygon fill="black" stroke="black" points="2093.58,-395.22 2103.03,-390.42 2092.65,-388.28 2093.58,-395.22"/>
</g>
<!-- cmeel&#45;cppadcodegen -->
<g id="node22" class="node">
<title>cmeel&#45;cppadcodegen</title>
<ellipse fill="none" stroke="black" cx="2283.37" cy="-306" rx="115.33" ry="18"/>
<text text-anchor="middle" x="2283.37" y="-300.95" font-family="Times,serif" font-size="14.00">cmeel&#45;cppadcodegen v2.4.3</text>
</g>
<!-- cmeel&#45;&gt;cmeel&#45;cppadcodegen -->
<g id="edge39" class="edge">
<title>cmeel&#45;&gt;cmeel&#45;cppadcodegen</title>
<path fill="none" stroke="black" d="M1628.9,-449.1C1763.3,-449.17 2257.98,-445.99 2304.37,-396 2319.89,-379.28 2311.36,-353.28 2300.9,-333.69"/>
<polygon fill="black" stroke="black" points="2303.56,-332.31 2295.54,-325.39 2297.5,-335.8 2303.56,-332.31"/>
</g>
<!-- pin3&#45;slam -->
<g id="node23" class="node">
<title>pin3&#45;slam</title>
<ellipse fill="none" stroke="black" cx="626.37" cy="-162" rx="67.22" ry="18"/>
<text text-anchor="middle" x="626.37" y="-156.95" font-family="Times,serif" font-size="14.00">pin3&#45;slam v1.6</text>
</g>
<!-- cmeel&#45;&gt;pin3&#45;slam -->
<g id="edge40" class="edge">
<title>cmeel&#45;&gt;pin3&#45;slam</title>
<path fill="none" stroke="black" d="M1561.81,-448.72C1360.87,-446.66 322.76,-430.88 237.37,-324 219.22,-301.28 245.83,-224.6 255.37,-216 297.24,-178.24 452.47,-167.31 548.37,-164.2"/>
<polygon fill="black" stroke="black" points="548.3,-167.67 558.19,-163.87 548.08,-160.67 548.3,-167.67"/>
</g>
<!-- cmeel&#45;simde -->
<g id="node25" class="node">
<title>cmeel&#45;simde</title>
<ellipse fill="none" stroke="black" cx="1878.37" cy="-378" rx="85.13" ry="18"/>
<text text-anchor="middle" x="1878.37" y="-372.95" font-family="Times,serif" font-size="14.00">cmeel&#45;simde v0.7.2</text>
</g>
<!-- cmeel&#45;&gt;cmeel&#45;simde -->
<g id="edge49" class="edge">
<title>cmeel&#45;&gt;cmeel&#45;simde</title>
<path fill="none" stroke="black" d="M1625.39,-441.58C1670.07,-430.52 1755.16,-409.48 1814.25,-394.86"/>
<polygon fill="black" stroke="black" points="1814.73,-398.1 1823.59,-392.3 1813.05,-391.3 1814.73,-398.1"/>
</g>
<!-- cmeel&#45;lapack -->
<g id="node26" class="node">
<title>cmeel&#45;lapack</title>
<ellipse fill="none" stroke="black" cx="2442.37" cy="-378" rx="91.27" ry="18"/>
<text text-anchor="middle" x="2442.37" y="-372.95" font-family="Times,serif" font-size="14.00">cmeel&#45;lapack v3.11.0</text>
</g>
<!-- cmeel&#45;&gt;cmeel&#45;lapack -->
<g id="edge50" class="edge">
<title>cmeel&#45;&gt;cmeel&#45;lapack</title>
<path fill="none" stroke="black" d="M1628.75,-447.68C1733.47,-443.3 2064.77,-427.74 2337.37,-396 2346.33,-394.96 2355.7,-393.69 2364.99,-392.33"/>
<polygon fill="black" stroke="black" points="2365.47,-395.64 2374.84,-390.69 2364.43,-388.72 2365.47,-395.64"/>
</g>
<!-- cmeel&#45;yaml&#45;cpp -->
<g id="node27" class="node">
<title>cmeel&#45;yaml&#45;cpp</title>
<ellipse fill="none" stroke="black" cx="2649.37" cy="-378" rx="97.93" ry="18"/>
<text text-anchor="middle" x="2649.37" y="-372.95" font-family="Times,serif" font-size="14.00">cmeel&#45;yaml&#45;cpp v0.7.0</text>
</g>
<!-- cmeel&#45;&gt;cmeel&#45;yaml&#45;cpp -->
<g id="edge51" class="edge">
<title>cmeel&#45;&gt;cmeel&#45;yaml&#45;cpp</title>
<path fill="none" stroke="black" d="M1629.02,-448.35C1751.68,-445.73 2186.25,-434.15 2542.37,-396 2551.01,-395.07 2560.02,-393.93 2568.98,-392.67"/>
<polygon fill="black" stroke="black" points="2569.47,-395.99 2578.86,-391.09 2568.46,-389.07 2569.47,-395.99"/>
</g>
<!-- cmeel&#45;openblas -->
<g id="node28" class="node">
<title>cmeel&#45;openblas</title>
<ellipse fill="none" stroke="black" cx="2865.37" cy="-378" rx="99.97" ry="18"/>
<text text-anchor="middle" x="2865.37" y="-372.95" font-family="Times,serif" font-size="14.00">cmeel&#45;openblas v0.3.23</text>
</g>
<!-- cmeel&#45;&gt;cmeel&#45;openblas -->
<g id="edge52" class="edge">
<title>cmeel&#45;&gt;cmeel&#45;openblas</title>
<path fill="none" stroke="black" d="M1629.18,-448.8C1768.58,-447.71 2312.18,-440.64 2756.37,-396 2765.34,-395.1 2774.7,-393.95 2784,-392.69"/>
<polygon fill="black" stroke="black" points="2784.45,-396.01 2793.86,-391.15 2783.47,-389.08 2784.45,-396.01"/>
</g>
<!-- proxsuite -->
<g id="node29" class="node">
<title>proxsuite</title>
<ellipse fill="none" stroke="black" cx="2000.37" cy="-306" rx="71.31" ry="18"/>
<text text-anchor="middle" x="2000.37" y="-300.95" font-family="Times,serif" font-size="14.00">proxsuite v0.4.0</text>
</g>
<!-- cmeel&#45;&gt;proxsuite -->
<g id="edge53" class="edge">
<title>cmeel&#45;&gt;proxsuite</title>
<path fill="none" stroke="black" d="M1629.04,-448.65C1710.19,-447.08 1912.81,-438.83 1963.37,-396 1981.01,-381.05 1987.69,-355.09 1991.7,-335.06"/>
<polygon fill="black" stroke="black" points="1995.3,-335.84 1993.76,-325.36 1988.43,-334.51 1995.3,-335.84"/>
</g>
<!-- cmeel&#45;&gt;proxsuite -->
<g id="edge54" class="edge">
<title>cmeel&#45;&gt;proxsuite</title>
<path fill="none" stroke="black" d="M1629.1,-448.79C1713.34,-447.63 1928.98,-440.38 1981.37,-396 1998.93,-381.12 2005.62,-355.34 2006.56,-335.34"/>
<polygon fill="black" stroke="black" points="2010.06,-335.33 2006.49,-325.36 2003.06,-335.38 2010.06,-335.33"/>
</g>
<!-- cmeel&#45;boost&#45;&gt;eigenpy -->
<g id="edge5" class="edge">
<title>cmeel&#45;boost&#45;&gt;eigenpy</title>
<path fill="none" stroke="black" d="M947.08,-366.52C1034.26,-353.23 1183.65,-330.44 1270.12,-317.26"/>
<polygon fill="black" stroke="black" points="1270.5,-320.59 1279.86,-315.62 1269.45,-313.67 1270.5,-320.59"/>
</g>
<!-- cmeel&#45;boost&#45;&gt;eiquadprog -->
<g id="edge32" class="edge">
<title>cmeel&#45;boost&#45;&gt;eiquadprog</title>
<path fill="none" stroke="black" d="M929.85,-363.09C972.46,-351.57 1033.04,-335.2 1077.75,-323.11"/>
<polygon fill="black" stroke="black" points="1078.44,-326.28 1087.18,-320.29 1076.61,-319.52 1078.44,-326.28"/>
</g>
<!-- cmeel&#45;boost&#45;&gt;pin3&#45;slam -->
<g id="edge41" class="edge">
<title>cmeel&#45;boost&#45;&gt;pin3&#45;slam</title>
<path fill="none" stroke="black" d="M791.38,-375.93C629.38,-373.02 294.61,-362.39 259.37,-324 168.98,-225.54 420.9,-184.19 552.29,-169.68"/>
<polygon fill="black" stroke="black" points="552.51,-173.07 562.07,-168.52 551.76,-166.11 552.51,-173.07"/>
</g>
<!-- numpy -->
<g id="node4" class="node">
<title>numpy</title>
<ellipse fill="none" stroke="black" cx="878.37" cy="-450" rx="37.02" ry="18"/>
<text text-anchor="middle" x="878.37" y="-444.95" font-family="Times,serif" font-size="14.00">numpy</text>
</g>
<!-- numpy&#45;&gt;cmeel&#45;boost -->
<g id="edge3" class="edge">
<title>numpy&#45;&gt;cmeel&#45;boost</title>
<path fill="none" stroke="black" d="M878.37,-431.7C878.37,-424.24 878.37,-415.32 878.37,-406.97"/>
<polygon fill="black" stroke="black" points="881.87,-407.1 878.37,-397.1 874.87,-407.1 881.87,-407.1"/>
</g>
<!-- cmeel&#45;eigen&#45;&gt;eigenpy -->
<g id="edge6" class="edge">
<title>cmeel&#45;eigen&#45;&gt;eigenpy</title>
<path fill="none" stroke="black" d="M1337.37,-359.7C1337.37,-352.24 1337.37,-343.32 1337.37,-334.97"/>
<polygon fill="black" stroke="black" points="1340.87,-335.1 1337.37,-325.1 1333.87,-335.1 1340.87,-335.1"/>
</g>
<!-- cmeel&#45;eigen&#45;&gt;eiquadprog -->
<g id="edge33" class="edge">
<title>cmeel&#45;eigen&#45;&gt;eiquadprog</title>
<path fill="none" stroke="black" d="M1293.97,-361.81C1263.18,-351.03 1221.72,-336.52 1189.19,-325.14"/>
<polygon fill="black" stroke="black" points="1190.56,-321.56 1179.97,-321.56 1188.25,-328.17 1190.56,-321.56"/>
</g>
<!-- cmeel&#45;eigen&#45;&gt;pin3&#45;slam -->
<g id="edge43" class="edge">
<title>cmeel&#45;eigen&#45;&gt;pin3&#45;slam</title>
<path fill="none" stroke="black" d="M1312.05,-360.44C1297.19,-350.4 1278.27,-337.04 1262.37,-324 1244.38,-309.25 1244.95,-298.85 1224.37,-288 1053.08,-197.73 822,-172.64 703.5,-165.67"/>
<polygon fill="black" stroke="black" points="703.91,-162.13 693.73,-165.07 703.52,-169.12 703.91,-162.13"/>
</g>
<!-- cmeel&#45;eigen&#45;&gt;proxsuite -->
<g id="edge55" class="edge">
<title>cmeel&#45;eigen&#45;&gt;proxsuite</title>
<path fill="none" stroke="black" d="M1415.55,-368.93C1515.14,-358.64 1692.57,-340.21 1844.37,-324 1870.68,-321.19 1899.48,-318.07 1925.09,-315.27"/>
<polygon fill="black" stroke="black" points="1925.3,-318.66 1934.86,-314.09 1924.54,-311.7 1925.3,-318.66"/>
</g>
<!-- eigenpy&#45;&gt;hpp&#45;fcl -->
<g id="edge11" class="edge">
<title>eigenpy&#45;&gt;hpp&#45;fcl</title>
<path fill="none" stroke="black" d="M1362.14,-288.94C1376.83,-279.43 1395.63,-267.24 1411.65,-256.86"/>
<polygon fill="black" stroke="black" points="1413.22,-259.36 1419.71,-250.98 1409.41,-253.49 1413.22,-259.36"/>
</g>
<!-- hpp&#45;fcl&#45;&gt;pin -->
<g id="edge23" class="edge">
<title>hpp&#45;fcl&#45;&gt;pin</title>
<path fill="none" stroke="black" d="M1444.13,-215.7C1443.6,-208.24 1442.96,-199.32 1442.36,-190.97"/>
<polygon fill="black" stroke="black" points="1445.79,-190.83 1441.59,-181.1 1438.81,-191.33 1445.79,-190.83"/>
</g>
<!-- hpp&#45;fcl&#45;&gt;pin3&#45;slam -->
<g id="edge47" class="edge">
<title>hpp&#45;fcl&#45;&gt;pin3&#45;slam</title>
<path fill="none" stroke="black" d="M1385.68,-227.51C1348.73,-224.13 1300.3,-219.74 1257.37,-216 1056.11,-198.45 818.65,-178.79 700.67,-169.09"/>
<polygon fill="black" stroke="black" points="701.22,-165.54 690.97,-168.21 700.65,-172.51 701.22,-165.54"/>
</g>
<!-- cmeel&#45;assimp&#45;&gt;hpp&#45;fcl -->
<g id="edge8" class="edge">
<title>cmeel&#45;assimp&#45;&gt;hpp&#45;fcl</title>
<path fill="none" stroke="black" d="M1499.94,-288.05C1491.09,-279.46 1480.19,-268.86 1470.46,-259.4"/>
<polygon fill="black" stroke="black" points="1473.25,-257.25 1463.64,-252.79 1468.37,-262.27 1473.25,-257.25"/>
</g>
<!-- cmeel&#45;octomap&#45;&gt;hpp&#45;fcl -->
<g id="edge9" class="edge">
<title>cmeel&#45;octomap&#45;&gt;hpp&#45;fcl</title>
<path fill="none" stroke="black" d="M1675.09,-290.83C1625.01,-278.66 1553.2,-261.21 1503.24,-249.07"/>
<polygon fill="black" stroke="black" points="1504.16,-245.45 1493.62,-246.48 1502.51,-252.25 1504.16,-245.45"/>
</g>
<!-- cmeel&#45;urdfdom&#45;headers&#45;&gt;cmeel&#45;urdfdom -->
<g id="edge17" class="edge">
<title>cmeel&#45;urdfdom&#45;headers&#45;&gt;cmeel&#45;urdfdom</title>
<path fill="none" stroke="black" d="M848.08,-288.05C831.91,-278.7 811.64,-266.98 794.28,-256.93"/>
<polygon fill="black" stroke="black" points="796.38,-253.53 785.97,-251.55 792.87,-259.58 796.38,-253.53"/>
</g>
<!-- cmeel&#45;urdfdom&#45;headers&#45;&gt;pin3&#45;slam -->
<g id="edge46" class="edge">
<title>cmeel&#45;urdfdom&#45;headers&#45;&gt;pin3&#45;slam</title>
<path fill="none" stroke="black" d="M880.83,-287.56C883.69,-267.67 884.85,-235.41 867.37,-216 845.28,-191.47 762.47,-177.27 700.04,-169.85"/>
<polygon fill="black" stroke="black" points="700.76,-166.29 690.42,-168.63 699.96,-173.25 700.76,-166.29"/>
</g>
<!-- cmeel&#45;urdfdom&#45;&gt;pin -->
<g id="edge21" class="edge">
<title>cmeel&#45;urdfdom&#45;&gt;pin</title>
<path fill="none" stroke="black" d="M843,-224.13C983.45,-209.76 1257.41,-181.72 1379.32,-169.25"/>
<polygon fill="black" stroke="black" points="1379.35,-172.66 1388.94,-168.16 1378.63,-165.7 1379.35,-172.66"/>
</g>
<!-- cmeel&#45;urdfdom&#45;&gt;pin3&#45;slam -->
<g id="edge45" class="edge">
<title>cmeel&#45;urdfdom&#45;&gt;pin3&#45;slam</title>
<path fill="none" stroke="black" d="M725.56,-216.41C707.32,-206.59 684.05,-194.06 664.64,-183.61"/>
<polygon fill="black" stroke="black" points="666.64,-180.17 656.17,-178.51 663.32,-186.33 666.64,-180.17"/>
</g>
<!-- cmeel&#45;console&#45;bridge&#45;&gt;cmeel&#45;urdfdom -->
<g id="edge15" class="edge">
<title>cmeel&#45;console&#45;bridge&#45;&gt;cmeel&#45;urdfdom</title>
<path fill="none" stroke="black" d="M465.95,-291C527.56,-279.12 615.74,-262.12 678.74,-249.97"/>
<polygon fill="black" stroke="black" points="679.26,-253.24 688.42,-247.91 677.93,-246.37 679.26,-253.24"/>
</g>
<!-- cmeel&#45;console&#45;bridge&#45;&gt;pin3&#45;slam -->
<g id="edge42" class="edge">
<title>cmeel&#45;console&#45;bridge&#45;&gt;pin3&#45;slam</title>
<path fill="none" stroke="black" d="M477.37,-292.4C508.54,-284.62 542.76,-272.1 569.37,-252 590.34,-236.16 605.69,-210.18 615.14,-190.37"/>
<polygon fill="black" stroke="black" points="618.73,-191.93 619.67,-181.38 612.35,-189.04 618.73,-191.93"/>
</g>
<!-- cmeel&#45;tinyxml&#45;&gt;cmeel&#45;urdfdom -->
<g id="edge16" class="edge">
<title>cmeel&#45;tinyxml&#45;&gt;cmeel&#45;urdfdom</title>
<path fill="none" stroke="black" d="M663.28,-288.41C679.57,-279.06 700.13,-267.27 717.78,-257.14"/>
<polygon fill="black" stroke="black" points="719.31,-259.73 726.24,-251.71 715.82,-253.65 719.31,-259.73"/>
</g>
<!-- cmeel&#45;tinyxml&#45;&gt;pin3&#45;slam -->
<g id="edge44" class="edge">
<title>cmeel&#45;tinyxml&#45;&gt;pin3&#45;slam</title>
<path fill="none" stroke="black" d="M633.39,-287.59C632.03,-263.5 629.56,-219.75 627.95,-191.03"/>
<polygon fill="black" stroke="black" points="631.39,-190.9 627.33,-181.11 624.4,-191.29 631.39,-190.9"/>
</g>
<!-- pin&#45;&gt;example&#45;robot&#45;data -->
<g id="edge25" class="edge">
<title>pin&#45;&gt;example&#45;robot&#45;data</title>
<path fill="none" stroke="black" d="M1387.81,-157.97C1204.98,-147.43 594.03,-112.2 339.34,-97.51"/>
<polygon fill="black" stroke="black" points="339.77,-93.98 329.59,-96.89 339.37,-100.96 339.77,-93.98"/>
</g>
<!-- pin&#45;&gt;tsid -->
<g id="edge28" class="edge">
<title>pin&#45;&gt;tsid</title>
<path fill="none" stroke="black" d="M1408.95,-147.17C1384.08,-136.22 1349.14,-120.84 1322.11,-108.94"/>
<polygon fill="black" stroke="black" points="1323.74,-105.39 1313.17,-104.56 1320.92,-111.8 1323.74,-105.39"/>
</g>
<!-- pin&#45;&gt;ndcurves -->
<g id="edge36" class="edge">
<title>pin&#45;&gt;ndcurves</title>
<path fill="none" stroke="black" d="M1484.39,-151.34C1539.48,-139.25 1634.2,-118.47 1696.81,-104.73"/>
<polygon fill="black" stroke="black" points="1697.32,-107.98 1706.34,-102.42 1695.82,-101.14 1697.32,-107.98"/>
</g>
<!-- example&#45;robot&#45;data&#45;&gt;crocoddyl -->
<g id="edge30" class="edge">
<title>example&#45;robot&#45;data&#45;&gt;crocoddyl</title>
<path fill="none" stroke="black" d="M193.66,-72.41C174.35,-62.61 149.73,-50.12 129.15,-39.69"/>
<polygon fill="black" stroke="black" points="130.92,-36.15 120.42,-34.75 127.75,-42.39 130.92,-36.15"/>
</g>
<!-- eiquadprog&#45;&gt;tsid -->
<g id="edge27" class="edge">
<title>eiquadprog&#45;&gt;tsid</title>
<path fill="none" stroke="black" d="M1148.91,-287.85C1174.09,-250.43 1234.09,-161.25 1263.92,-116.93"/>
<polygon fill="black" stroke="black" points="1267.29,-119.19 1269.97,-108.94 1261.48,-115.28 1267.29,-119.19"/>
</g>
<!-- scipy -->
<g id="node19" class="node">
<title>scipy</title>
<ellipse fill="none" stroke="black" cx="30.37" cy="-90" rx="30.37" ry="18"/>
<text text-anchor="middle" x="30.37" y="-84.95" font-family="Times,serif" font-size="14.00">scipy</text>
</g>
<!-- scipy&#45;&gt;crocoddyl -->
<g id="edge31" class="edge">
<title>scipy&#45;&gt;crocoddyl</title>
<path fill="none" stroke="black" d="M43.24,-73.46C50.36,-64.87 59.39,-53.97 67.5,-44.19"/>
<polygon fill="black" stroke="black" points="70.63,-46.9 74.31,-36.96 65.24,-42.43 70.63,-46.9"/>
</g>
<!-- cmeel&#45;cppad&#45;&gt;cmeel&#45;cppadcodegen -->
<g id="edge38" class="edge">
<title>cmeel&#45;cppad&#45;&gt;cmeel&#45;cppadcodegen</title>
<path fill="none" stroke="black" d="M2209.09,-360.05C2221.64,-351.09 2237.23,-339.96 2250.88,-330.2"/>
<polygon fill="black" stroke="black" points="2252.42,-332.69 2258.52,-324.03 2248.35,-327 2252.42,-332.69"/>
</g>
<!-- casadi -->
<g id="node24" class="node">
<title>casadi</title>
<ellipse fill="none" stroke="black" cx="526.37" cy="-234" rx="33.95" ry="18"/>
<text text-anchor="middle" x="526.37" y="-228.95" font-family="Times,serif" font-size="14.00">casadi</text>
</g>
<!-- casadi&#45;&gt;pin3&#45;slam -->
<g id="edge48" class="edge">
<title>casadi&#45;&gt;pin3&#45;slam</title>
<path fill="none" stroke="black" d="M546.12,-219.17C559.83,-209.58 578.39,-196.59 594.2,-185.51"/>
<polygon fill="black" stroke="black" points="595.96,-187.86 602.14,-179.26 591.94,-182.12 595.96,-187.86"/>
</g>
<!-- cmeel&#45;simde&#45;&gt;proxsuite -->
<g id="edge56" class="edge">
<title>cmeel&#45;simde&#45;&gt;proxsuite</title>
<path fill="none" stroke="black" d="M1906.97,-360.59C1923.88,-350.88 1945.48,-338.49 1963.64,-328.07"/>
<polygon fill="black" stroke="black" points="1964.85,-330.84 1971.78,-322.83 1961.37,-324.77 1964.85,-330.84"/>
</g>
</g>
</svg>
