<?xml version="1.0" encoding="UTF-8" standalone="no"?>
<!DOCTYPE svg PUBLIC "-//W3C//DTD SVG 1.1//EN"
 "http://www.w3.org/Graphics/SVG/1.1/DTD/svg11.dtd">
<!-- Generated by graphviz version 8.1.0 (0)
 -->
<!-- Pages: 1 -->
<svg width="2271pt" height="678pt"
 viewBox="0.00 0.00 2271.39 677.90" xmlns="http://www.w3.org/2000/svg" xmlns:xlink="http://www.w3.org/1999/xlink">
<g id="graph0" class="graph" transform="scale(1 1) rotate(0) translate(4 673.9)">
<polygon fill="white" stroke="none" points="-4,4 -4,-673.9 2267.39,-673.9 2267.39,4 -4,4"/>
<!-- cmeel&#45;example -->
<g id="node1" class="node">
<title>cmeel&#45;example</title>
<g id="a_node1"><a xlink:href="https://github.com/cmake-wheel/cmeel-example" xlink:title="cmeel&#45;example&#10;0.5.3">
<ellipse fill="none" stroke="black" cx="1778.51" cy="-557.24" rx="70.71" ry="28.99"/>
<text text-anchor="middle" x="1778.51" y="-560.44" font-family="Times,serif" font-size="14.00">cmeel&#45;example</text>
<text text-anchor="middle" x="1778.51" y="-543.94" font-family="Times,serif" font-size="14.00">0.5.3</text>
</a>
</g>
</g>
<!-- cmeel -->
<g id="node2" class="node">
<title>cmeel</title>
<ellipse fill="none" stroke="black" cx="907.51" cy="-651.9" rx="33.44" ry="18"/>
<text text-anchor="middle" x="907.51" y="-646.85" font-family="Times,serif" font-size="14.00">cmeel</text>
</g>
<!-- cmeel&#45;&gt;cmeel&#45;example -->
<g id="edge1" class="edge">
<title>cmeel&#45;&gt;cmeel&#45;example</title>
<path fill="none" stroke="black" d="M940.97,-650.42C1072.38,-648.27 1553.09,-637.8 1699.51,-597.9 1709.73,-595.12 1720.18,-590.95 1729.99,-586.35"/>
<polygon fill="black" stroke="black" points="1731.13,-589.2 1738.56,-581.65 1728.04,-582.92 1731.13,-589.2"/>
</g>
<!-- cmeel&#45;boost -->
<g id="node3" class="node">
<title>cmeel&#45;boost</title>
<g id="a_node3"><a xlink:href="https://github.com/cmake-wheel/cmeel-boost" xlink:title="cmeel&#45;boost&#10;1.82.0">
<ellipse fill="none" stroke="black" cx="58.51" cy="-557.24" rx="58.51" ry="28.99"/>
<text text-anchor="middle" x="58.51" y="-560.44" font-family="Times,serif" font-size="14.00">cmeel&#45;boost</text>
<text text-anchor="middle" x="58.51" y="-543.94" font-family="Times,serif" font-size="14.00">1.82.0</text>
</a>
</g>
</g>
<!-- cmeel&#45;&gt;cmeel&#45;boost -->
<g id="edge2" class="edge">
<title>cmeel&#45;&gt;cmeel&#45;boost</title>
<path fill="none" stroke="black" d="M873.81,-650.5C743.66,-648.68 273.99,-639.32 131.51,-597.9 121.85,-595.09 112.03,-590.87 102.86,-586.21"/>
<polygon fill="black" stroke="black" points="104.67,-582.67 94.2,-581.03 101.36,-588.84 104.67,-582.67"/>
</g>
<!-- cmeel&#45;eigen -->
<g id="node5" class="node">
<title>cmeel&#45;eigen</title>
<g id="a_node5"><a xlink:href="https://github.com/cmake-wheel/cmeel-eigen" xlink:title="cmeel&#45;eigen&#10;3.4.0.1&#10;any">
<ellipse fill="none" stroke="black" cx="365.51" cy="-557.24" rx="58.51" ry="40.66"/>
<text text-anchor="middle" x="365.51" y="-568.69" font-family="Times,serif" font-size="14.00">cmeel&#45;eigen</text>
<text text-anchor="middle" x="365.51" y="-552.19" font-family="Times,serif" font-size="14.00">3.4.0.1</text>
<text text-anchor="middle" x="365.51" y="-535.69" font-family="Times,serif" font-size="14.00">any</text>
</a>
</g>
</g>
<!-- cmeel&#45;&gt;cmeel&#45;eigen -->
<g id="edge4" class="edge">
<title>cmeel&#45;&gt;cmeel&#45;eigen</title>
<path fill="none" stroke="black" d="M873.62,-651.46C795.14,-651.83 595.61,-647.37 438.51,-597.9 431.77,-595.78 424.92,-593.01 418.27,-589.92"/>
<polygon fill="black" stroke="black" points="420.21,-586.49 409.7,-585.22 417.13,-592.77 420.21,-586.49"/>
</g>
<!-- eigenpy -->
<g id="node6" class="node">
<title>eigenpy</title>
<g id="a_node6"><a xlink:href="https://github.com/cmake-wheel/eigenpy" xlink:title="eigenpy&#10;3.1.0">
<ellipse fill="none" stroke="black" cx="432.51" cy="-439.92" rx="41.54" ry="28.99"/>
<text text-anchor="middle" x="432.51" y="-443.12" font-family="Times,serif" font-size="14.00">eigenpy</text>
<text text-anchor="middle" x="432.51" y="-426.62" font-family="Times,serif" font-size="14.00">3.1.0</text>
</a>
</g>
</g>
<!-- cmeel&#45;&gt;eigenpy -->
<g id="edge7" class="edge">
<title>cmeel&#45;&gt;eigenpy</title>
<path fill="none" stroke="black" d="M873.71,-650.98C785.22,-650.53 549.57,-644.85 490.51,-597.9 454.65,-569.39 440.96,-516.44 435.74,-479.98"/>
<polygon fill="black" stroke="black" points="439.11,-479.72 434.37,-470.24 432.16,-480.6 439.11,-479.72"/>
</g>
<!-- hpp&#45;fcl -->
<g id="node7" class="node">
<title>hpp&#45;fcl</title>
<g id="a_node7"><a xlink:href="https://github.com/cmake-wheel/hpp-fcl" xlink:title="hpp&#45;fcl&#10;2.3.4">
<ellipse fill="none" stroke="black" cx="432.51" cy="-334.27" rx="38.89" ry="28.99"/>
<text text-anchor="middle" x="432.51" y="-337.47" font-family="Times,serif" font-size="14.00">hpp&#45;fcl</text>
<text text-anchor="middle" x="432.51" y="-320.97" font-family="Times,serif" font-size="14.00">2.3.4</text>
</a>
</g>
</g>
<!-- cmeel&#45;&gt;hpp&#45;fcl -->
<g id="edge10" class="edge">
<title>cmeel&#45;&gt;hpp&#45;fcl</title>
<path fill="none" stroke="black" d="M873.77,-650.57C751.48,-649.01 336.67,-640.6 297.51,-597.9 273.09,-571.26 281.68,-549.07 297.51,-516.58 308.88,-493.24 327.35,-500.9 343.51,-480.58 368.35,-449.36 360.49,-433.17 381.51,-399.27 388.29,-388.34 396.65,-377.14 404.62,-367.23"/>
<polygon fill="black" stroke="black" points="407.83,-369.84 411.48,-359.89 402.43,-365.39 407.83,-369.84"/>
</g>
<!-- cmeel&#45;assimp -->
<g id="node8" class="node">
<title>cmeel&#45;assimp</title>
<g id="a_node8"><a xlink:href="https://github.com/cmake-wheel/cmeel-assimp" xlink:title="cmeel&#45;assimp&#10;5.2.5.1&#10;py3">
<ellipse fill="none" stroke="black" cx="668.51" cy="-439.92" rx="64.88" ry="40.66"/>
<text text-anchor="middle" x="668.51" y="-451.37" font-family="Times,serif" font-size="14.00">cmeel&#45;assimp</text>
<text text-anchor="middle" x="668.51" y="-434.87" font-family="Times,serif" font-size="14.00">5.2.5.1</text>
<text text-anchor="middle" x="668.51" y="-418.37" font-family="Times,serif" font-size="14.00">py3</text>
</a>
</g>
</g>
<!-- cmeel&#45;&gt;cmeel&#45;assimp -->
<g id="edge12" class="edge">
<title>cmeel&#45;&gt;cmeel&#45;assimp</title>
<path fill="none" stroke="black" d="M874.83,-647.56C819.78,-641.22 712.13,-625.56 687.51,-597.9 662.15,-569.41 658.72,-525.6 660.89,-491.49"/>
<polygon fill="black" stroke="black" points="664.44,-492.04 661.77,-481.79 657.46,-491.47 664.44,-492.04"/>
</g>
<!-- cmeel&#45;octomap -->
<g id="node9" class="node">
<title>cmeel&#45;octomap</title>
<g id="a_node9"><a xlink:href="https://github.com/cmake-wheel/cmeel-octomap" xlink:title="cmeel&#45;octomap&#10;1.9.8.2&#10;py3">
<ellipse fill="none" stroke="black" cx="263.51" cy="-439.92" rx="71.24" ry="40.66"/>
<text text-anchor="middle" x="263.51" y="-451.37" font-family="Times,serif" font-size="14.00">cmeel&#45;octomap</text>
<text text-anchor="middle" x="263.51" y="-434.87" font-family="Times,serif" font-size="14.00">1.9.8.2</text>
<text text-anchor="middle" x="263.51" y="-418.37" font-family="Times,serif" font-size="14.00">py3</text>
</a>
</g>
</g>
<!-- cmeel&#45;&gt;cmeel&#45;octomap -->
<g id="edge13" class="edge">
<title>cmeel&#45;&gt;cmeel&#45;octomap</title>
<path fill="none" stroke="black" d="M873.71,-650.72C747.13,-649.69 306.2,-642.88 264.51,-597.9 238.41,-569.73 240.74,-525.01 248.11,-490.49"/>
<polygon fill="black" stroke="black" points="251.66,-491.67 250.53,-481.14 244.85,-490.08 251.66,-491.67"/>
</g>
<!-- cmeel&#45;urdfdom&#45;headers -->
<g id="node10" class="node">
<title>cmeel&#45;urdfdom&#45;headers</title>
<g id="a_node10"><a xlink:href="https://github.com/cmake-wheel/cmeel-urdfdom-headers" xlink:title="cmeel&#45;urdfdom&#45;headers&#10;1.1.0&#10;any">
<ellipse fill="none" stroke="black" cx="2009.51" cy="-557.24" rx="103.59" ry="40.66"/>
<text text-anchor="middle" x="2009.51" y="-568.69" font-family="Times,serif" font-size="14.00">cmeel&#45;urdfdom&#45;headers</text>
<text text-anchor="middle" x="2009.51" y="-552.19" font-family="Times,serif" font-size="14.00">1.1.0</text>
<text text-anchor="middle" x="2009.51" y="-535.69" font-family="Times,serif" font-size="14.00">any</text>
</a>
</g>
</g>
<!-- cmeel&#45;&gt;cmeel&#45;urdfdom&#45;headers -->
<g id="edge14" class="edge">
<title>cmeel&#45;&gt;cmeel&#45;urdfdom&#45;headers</title>
<path fill="none" stroke="black" d="M941.22,-650.31C1091.77,-647.46 1703.42,-633.88 1891.51,-597.9 1902.73,-595.75 1914.34,-592.81 1925.7,-589.48"/>
<polygon fill="black" stroke="black" points="1926.51,-592.59 1935.06,-586.32 1924.47,-585.89 1926.51,-592.59"/>
</g>
<!-- cmeel&#45;urdfdom -->
<g id="node11" class="node">
<title>cmeel&#45;urdfdom</title>
<g id="a_node11"><a xlink:href="https://github.com/cmake-wheel/cmeel-urdfdom" xlink:title="cmeel&#45;urdfdom&#10;3.1.0.3&#10;py3">
<ellipse fill="none" stroke="black" cx="1877.51" cy="-439.92" rx="71.24" ry="40.66"/>
<text text-anchor="middle" x="1877.51" y="-451.37" font-family="Times,serif" font-size="14.00">cmeel&#45;urdfdom</text>
<text text-anchor="middle" x="1877.51" y="-434.87" font-family="Times,serif" font-size="14.00">3.1.0.3</text>
<text text-anchor="middle" x="1877.51" y="-418.37" font-family="Times,serif" font-size="14.00">py3</text>
</a>
</g>
</g>
<!-- cmeel&#45;&gt;cmeel&#45;urdfdom -->
<g id="edge18" class="edge">
<title>cmeel&#45;&gt;cmeel&#45;urdfdom</title>
<path fill="none" stroke="black" d="M941.13,-650.23C1106.19,-646.77 1824.35,-629.92 1858.51,-597.9 1886.83,-571.36 1889.67,-526.26 1886.53,-491.19"/>
<polygon fill="black" stroke="black" points="1889.94,-491.23 1885.38,-481.66 1882.98,-491.98 1889.94,-491.23"/>
</g>
<!-- cmeel&#45;console&#45;bridge -->
<g id="node12" class="node">
<title>cmeel&#45;console&#45;bridge</title>
<g id="a_node12"><a xlink:href="https://github.com/cmake-wheel/cmeel-console-bridge" xlink:title="cmeel&#45;console&#45;bridge&#10;1.0.2.2&#10;py3">
<ellipse fill="none" stroke="black" cx="969.51" cy="-557.24" rx="94.58" ry="40.66"/>
<text text-anchor="middle" x="969.51" y="-568.69" font-family="Times,serif" font-size="14.00">cmeel&#45;console&#45;bridge</text>
<text text-anchor="middle" x="969.51" y="-552.19" font-family="Times,serif" font-size="14.00">1.0.2.2</text>
<text text-anchor="middle" x="969.51" y="-535.69" font-family="Times,serif" font-size="14.00">py3</text>
</a>
</g>
</g>
<!-- cmeel&#45;&gt;cmeel&#45;console&#45;bridge -->
<g id="edge19" class="edge">
<title>cmeel&#45;&gt;cmeel&#45;console&#45;bridge</title>
<path fill="none" stroke="black" d="M918.31,-634.76C923.84,-626.5 930.89,-615.96 937.98,-605.37"/>
<polygon fill="black" stroke="black" points="941.25,-607.77 943.9,-597.51 935.43,-603.88 941.25,-607.77"/>
</g>
<!-- cmeel&#45;tinyxml -->
<g id="node13" class="node">
<title>cmeel&#45;tinyxml</title>
<g id="a_node13"><a xlink:href="https://github.com/cmake-wheel/cmeel-tinyxml" xlink:title="cmeel&#45;tinyxml&#10;2.6.2.2&#10;py3">
<ellipse fill="none" stroke="black" cx="1150.51" cy="-557.24" rx="68.06" ry="40.66"/>
<text text-anchor="middle" x="1150.51" y="-568.69" font-family="Times,serif" font-size="14.00">cmeel&#45;tinyxml</text>
<text text-anchor="middle" x="1150.51" y="-552.19" font-family="Times,serif" font-size="14.00">2.6.2.2</text>
<text text-anchor="middle" x="1150.51" y="-535.69" font-family="Times,serif" font-size="14.00">py3</text>
</a>
</g>
</g>
<!-- cmeel&#45;&gt;cmeel&#45;tinyxml -->
<g id="edge20" class="edge">
<title>cmeel&#45;&gt;cmeel&#45;tinyxml</title>
<path fill="none" stroke="black" d="M937.13,-643.06C970.75,-633.79 1026.97,-617.16 1073.51,-597.9 1079.3,-595.51 1085.24,-592.84 1091.13,-590.06"/>
<polygon fill="black" stroke="black" points="1092.5,-592.8 1099.97,-585.29 1089.44,-586.5 1092.5,-592.8"/>
</g>
<!-- pin -->
<g id="node14" class="node">
<title>pin</title>
<g id="a_node14"><a xlink:href="https://github.com/cmake-wheel/pinocchio" xlink:title="pin&#10;2.6.18">
<ellipse fill="none" stroke="black" cx="1964.51" cy="-240.29" rx="35.71" ry="28.99"/>
<text text-anchor="middle" x="1964.51" y="-243.49" font-family="Times,serif" font-size="14.00">pin</text>
<text text-anchor="middle" x="1964.51" y="-226.99" font-family="Times,serif" font-size="14.00">2.6.18</text>
</a>
</g>
</g>
<!-- cmeel&#45;&gt;pin -->
<g id="edge22" class="edge">
<title>cmeel&#45;&gt;pin</title>
<path fill="none" stroke="black" d="M941.27,-650.73C1133.25,-649.59 2080.54,-641.75 2122.51,-597.9 2216.78,-499.43 2065.08,-335.3 1995.97,-269.67"/>
<polygon fill="black" stroke="black" points="1998.66,-267.46 1988.97,-263.17 1993.87,-272.57 1998.66,-267.46"/>
</g>
<!-- example&#45;robot&#45;data -->
<g id="node15" class="node">
<title>example&#45;robot&#45;data</title>
<g id="a_node15"><a xlink:href="https://github.com/cmake-wheel/example-robot-data" xlink:title="example&#45;robot&#45;data&#10;4.0.7&#10;pyver">
<ellipse fill="none" stroke="black" cx="1993.51" cy="-134.64" rx="86.62" ry="40.66"/>
<text text-anchor="middle" x="1993.51" y="-146.09" font-family="Times,serif" font-size="14.00">example&#45;robot&#45;data</text>
<text text-anchor="middle" x="1993.51" y="-129.59" font-family="Times,serif" font-size="14.00">4.0.7</text>
<text text-anchor="middle" x="1993.51" y="-113.09" font-family="Times,serif" font-size="14.00">pyver</text>
</a>
</g>
</g>
<!-- cmeel&#45;&gt;example&#45;robot&#45;data -->
<g id="edge24" class="edge">
<title>cmeel&#45;&gt;example&#45;robot&#45;data</title>
<path fill="none" stroke="black" d="M941.32,-650.64C1135.76,-649.01 2104.67,-638.85 2151.51,-597.9 2204.87,-551.25 2179.51,-511.79 2179.51,-440.92 2179.51,-440.92 2179.51,-440.92 2179.51,-333.27 2179.51,-261.34 2113.36,-204.92 2059.96,-171.09"/>
<polygon fill="black" stroke="black" points="2062.18,-167.73 2051.84,-165.44 2058.5,-173.68 2062.18,-167.73"/>
</g>
<!-- tsid -->
<g id="node16" class="node">
<title>tsid</title>
<g id="a_node16"><a xlink:href="https://github.com/cmake-wheel/tsid" xlink:title="tsid&#10;1.7.0">
<ellipse fill="none" stroke="black" cx="164.51" cy="-134.64" rx="30.94" ry="28.99"/>
<text text-anchor="middle" x="164.51" y="-137.84" font-family="Times,serif" font-size="14.00">tsid</text>
<text text-anchor="middle" x="164.51" y="-121.34" font-family="Times,serif" font-size="14.00">1.7.0</text>
</a>
</g>
</g>
<!-- cmeel&#45;&gt;tsid -->
<g id="edge26" class="edge">
<title>cmeel&#45;&gt;tsid</title>
<path fill="none" stroke="black" d="M873.86,-650.18C745.61,-647.18 292.12,-634.07 239.51,-597.9 191.9,-565.17 197.82,-536.56 183.51,-480.58 155.92,-372.59 158.37,-239.61 161.79,-174.83"/>
<polygon fill="black" stroke="black" points="165.34,-175.1 162.41,-164.92 158.35,-174.71 165.34,-175.1"/>
</g>
<!-- eiquadprog -->
<g id="node17" class="node">
<title>eiquadprog</title>
<g id="a_node17"><a xlink:href="https://github.com/cmake-wheel/eiquadprog" xlink:title="eiquadprog&#10;1.2.6&#10;py3">
<ellipse fill="none" stroke="black" cx="82.51" cy="-439.92" rx="54.27" ry="40.66"/>
<text text-anchor="middle" x="82.51" y="-451.37" font-family="Times,serif" font-size="14.00">eiquadprog</text>
<text text-anchor="middle" x="82.51" y="-434.87" font-family="Times,serif" font-size="14.00">1.2.6</text>
<text text-anchor="middle" x="82.51" y="-418.37" font-family="Times,serif" font-size="14.00">py3</text>
</a>
</g>
</g>
<!-- cmeel&#45;&gt;eiquadprog -->
<g id="edge34" class="edge">
<title>cmeel&#45;&gt;eiquadprog</title>
<path fill="none" stroke="black" d="M873.7,-650.38C736.91,-648.03 229.02,-636.72 169.51,-597.9 135.27,-575.56 146.35,-552.33 126.51,-516.58 121.09,-506.82 115.16,-496.42 109.45,-486.56"/>
<polygon fill="black" stroke="black" points="112.13,-485.2 104.07,-478.31 106.07,-488.72 112.13,-485.2"/>
</g>
<!-- crocoddyl -->
<g id="node18" class="node">
<title>crocoddyl</title>
<g id="a_node18"><a xlink:href="https://github.com/cmake-wheel/crocoddyl" xlink:title="crocoddyl&#10;2.0.0">
<ellipse fill="none" stroke="black" cx="1993.51" cy="-28.99" rx="49.5" ry="28.99"/>
<text text-anchor="middle" x="1993.51" y="-32.19" font-family="Times,serif" font-size="14.00">crocoddyl</text>
<text text-anchor="middle" x="1993.51" y="-15.69" font-family="Times,serif" font-size="14.00">2.0.0</text>
</a>
</g>
</g>
<!-- cmeel&#45;&gt;crocoddyl -->
<g id="edge29" class="edge">
<title>cmeel&#45;&gt;crocoddyl</title>
<path fill="none" stroke="black" d="M941.17,-650.65C1138.03,-649.04 2133.52,-638.87 2182.51,-597.9 2237.35,-552.04 2217.51,-512.4 2217.51,-440.92 2217.51,-440.92 2217.51,-440.92 2217.51,-239.29 2217.51,-174.16 2240.43,-143.83 2198.51,-93.98 2163.19,-51.98 2100.71,-37.12 2053.99,-32.08"/>
<polygon fill="black" stroke="black" points="2054.36,-28.5 2044.07,-31.05 2053.7,-35.47 2054.36,-28.5"/>
</g>
<!-- ndcurves -->
<g id="node20" class="node">
<title>ndcurves</title>
<g id="a_node20"><a xlink:href="https://github.com/cmake-wheel/ndcurves" xlink:title="ndcurves&#10;1.3.0">
<ellipse fill="none" stroke="black" cx="2143.51" cy="-134.64" rx="45.79" ry="28.99"/>
<text text-anchor="middle" x="2143.51" y="-137.84" font-family="Times,serif" font-size="14.00">ndcurves</text>
<text text-anchor="middle" x="2143.51" y="-121.34" font-family="Times,serif" font-size="14.00">1.3.0</text>
</a>
</g>
</g>
<!-- cmeel&#45;&gt;ndcurves -->
<g id="edge35" class="edge">
<title>cmeel&#45;&gt;ndcurves</title>
<path fill="none" stroke="black" d="M941.18,-650.75C1142.68,-649.71 2181.97,-642.2 2231.51,-597.9 2284.13,-550.86 2255.51,-511.5 2255.51,-440.92 2255.51,-440.92 2255.51,-440.92 2255.51,-333.27 2255.51,-267.64 2208.19,-203.83 2175.06,-167.2"/>
<polygon fill="black" stroke="black" points="2178.18,-165.33 2168.82,-160.37 2173.04,-170.08 2178.18,-165.33"/>
</g>
<!-- cmeel&#45;cppad -->
<g id="node21" class="node">
<title>cmeel&#45;cppad</title>
<g id="a_node21"><a xlink:href="https://github.com/cmake-wheel/cmeel-cppad" xlink:title="cmeel&#45;cppad&#10;20230000.0&#10;py3">
<ellipse fill="none" stroke="black" cx="757.51" cy="-557.24" rx="60.63" ry="40.66"/>
<text text-anchor="middle" x="757.51" y="-568.69" font-family="Times,serif" font-size="14.00">cmeel&#45;cppad</text>
<text text-anchor="middle" x="757.51" y="-552.19" font-family="Times,serif" font-size="14.00">20230000.0</text>
<text text-anchor="middle" x="757.51" y="-535.69" font-family="Times,serif" font-size="14.00">py3</text>
</a>
</g>
</g>
<!-- cmeel&#45;&gt;cmeel&#45;cppad -->
<g id="edge37" class="edge">
<title>cmeel&#45;&gt;cmeel&#45;cppad</title>
<path fill="none" stroke="black" d="M886.02,-637.62C866.47,-625.55 836.79,-607.22 810.88,-591.21"/>
<polygon fill="black" stroke="black" points="812.88,-587.71 802.53,-585.43 809.2,-593.67 812.88,-587.71"/>
</g>
<!-- cmeel&#45;cppadcodegen -->
<g id="node22" class="node">
<title>cmeel&#45;cppadcodegen</title>
<g id="a_node22"><a xlink:href="https://github.com/cmake-wheel/cmeel-cppadcodegen" xlink:title="cmeel&#45;cppadcodegen&#10;2.4.3&#10;any">
<ellipse fill="none" stroke="black" cx="845.51" cy="-439.92" rx="92.45" ry="40.66"/>
<text text-anchor="middle" x="845.51" y="-451.37" font-family="Times,serif" font-size="14.00">cmeel&#45;cppadcodegen</text>
<text text-anchor="middle" x="845.51" y="-434.87" font-family="Times,serif" font-size="14.00">2.4.3</text>
<text text-anchor="middle" x="845.51" y="-418.37" font-family="Times,serif" font-size="14.00">any</text>
</a>
</g>
</g>
<!-- cmeel&#45;&gt;cmeel&#45;cppadcodegen -->
<g id="edge39" class="edge">
<title>cmeel&#45;&gt;cmeel&#45;cppadcodegen</title>
<path fill="none" stroke="black" d="M891.73,-635.7C882.5,-625.83 871.53,-612.18 865.51,-597.9 851.35,-564.26 846.5,-523.27 845.11,-491.61"/>
<polygon fill="black" stroke="black" points="848.59,-491.71 844.76,-481.83 841.59,-491.94 848.59,-491.71"/>
</g>
<!-- cmeel&#45;simde -->
<g id="node23" class="node">
<title>cmeel&#45;simde</title>
<g id="a_node23"><a xlink:href="https://github.com/cmake-wheel/cmeel-simde" xlink:title="cmeel&#45;simde&#10;0.7.2&#10;any">
<ellipse fill="none" stroke="black" cx="579.51" cy="-557.24" rx="61.16" ry="40.66"/>
<text text-anchor="middle" x="579.51" y="-568.69" font-family="Times,serif" font-size="14.00">cmeel&#45;simde</text>
<text text-anchor="middle" x="579.51" y="-552.19" font-family="Times,serif" font-size="14.00">0.7.2</text>
<text text-anchor="middle" x="579.51" y="-535.69" font-family="Times,serif" font-size="14.00">any</text>
</a>
</g>
</g>
<!-- cmeel&#45;&gt;cmeel&#45;simde -->
<g id="edge40" class="edge">
<title>cmeel&#45;&gt;cmeel&#45;simde</title>
<path fill="none" stroke="black" d="M875.17,-647.07C826.28,-640.64 731.13,-625.56 654.51,-597.9 647.9,-595.51 641.15,-592.64 634.55,-589.54"/>
<polygon fill="black" stroke="black" points="636.52,-586.12 626,-584.88 633.44,-592.41 636.52,-586.12"/>
</g>
<!-- cmeel&#45;lapack -->
<g id="node24" class="node">
<title>cmeel&#45;lapack</title>
<g id="a_node24"><a xlink:href="https://github.com/cmake-wheel/cmeel-lapack" xlink:title="cmeel&#45;lapack&#10;3.11.0&#10;py3">
<ellipse fill="none" stroke="black" cx="1299.51" cy="-557.24" rx="62.76" ry="40.66"/>
<text text-anchor="middle" x="1299.51" y="-568.69" font-family="Times,serif" font-size="14.00">cmeel&#45;lapack</text>
<text text-anchor="middle" x="1299.51" y="-552.19" font-family="Times,serif" font-size="14.00">3.11.0</text>
<text text-anchor="middle" x="1299.51" y="-535.69" font-family="Times,serif" font-size="14.00">py3</text>
</a>
</g>
</g>
<!-- cmeel&#45;&gt;cmeel&#45;lapack -->
<g id="edge41" class="edge">
<title>cmeel&#45;&gt;cmeel&#45;lapack</title>
<path fill="none" stroke="black" d="M940.66,-649.11C999.79,-645.11 1126.69,-632.86 1227.51,-597.9 1233.3,-595.89 1239.17,-593.44 1244.93,-590.76"/>
<polygon fill="black" stroke="black" points="1246.07,-593.61 1253.5,-586.05 1242.98,-587.33 1246.07,-593.61"/>
</g>
<!-- cmeel&#45;yaml&#45;cpp -->
<g id="node25" class="node">
<title>cmeel&#45;yaml&#45;cpp</title>
<g id="a_node25"><a xlink:href="https://github.com/cmake-wheel/cmeel-yaml-cpp" xlink:title="cmeel&#45;yaml&#45;cpp&#10;0.7.0&#10;py3">
<ellipse fill="none" stroke="black" cx="1454.51" cy="-557.24" rx="74.42" ry="40.66"/>
<text text-anchor="middle" x="1454.51" y="-568.69" font-family="Times,serif" font-size="14.00">cmeel&#45;yaml&#45;cpp</text>
<text text-anchor="middle" x="1454.51" y="-552.19" font-family="Times,serif" font-size="14.00">0.7.0</text>
<text text-anchor="middle" x="1454.51" y="-535.69" font-family="Times,serif" font-size="14.00">py3</text>
</a>
</g>
</g>
<!-- cmeel&#45;&gt;cmeel&#45;yaml&#45;cpp -->
<g id="edge42" class="edge">
<title>cmeel&#45;&gt;cmeel&#45;yaml&#45;cpp</title>
<path fill="none" stroke="black" d="M941.16,-650.84C1018.66,-649.89 1215.07,-642.84 1371.51,-597.9 1378.32,-595.94 1385.26,-593.48 1392.08,-590.73"/>
<polygon fill="black" stroke="black" points="1393.12,-593.67 1400.96,-586.54 1390.39,-587.22 1393.12,-593.67"/>
</g>
<!-- cmeel&#45;openblas -->
<g id="node26" class="node">
<title>cmeel&#45;openblas</title>
<g id="a_node26"><a xlink:href="https://github.com/cmake-wheel/cmeel-openblas" xlink:title="cmeel&#45;openblas&#10;0.3.23&#10;py3">
<ellipse fill="none" stroke="black" cx="1618.51" cy="-557.24" rx="71.77" ry="40.66"/>
<text text-anchor="middle" x="1618.51" y="-568.69" font-family="Times,serif" font-size="14.00">cmeel&#45;openblas</text>
<text text-anchor="middle" x="1618.51" y="-552.19" font-family="Times,serif" font-size="14.00">0.3.23</text>
<text text-anchor="middle" x="1618.51" y="-535.69" font-family="Times,serif" font-size="14.00">py3</text>
</a>
</g>
</g>
<!-- cmeel&#45;&gt;cmeel&#45;openblas -->
<g id="edge43" class="edge">
<title>cmeel&#45;&gt;cmeel&#45;openblas</title>
<path fill="none" stroke="black" d="M940.87,-649.72C1054.16,-645.46 1423.39,-629.44 1537.51,-597.9 1544.41,-595.99 1551.42,-593.51 1558.29,-590.7"/>
<polygon fill="black" stroke="black" points="1559.44,-593.59 1567.23,-586.4 1556.66,-587.16 1559.44,-593.59"/>
</g>
<!-- proxsuite -->
<g id="node27" class="node">
<title>proxsuite</title>
<g id="a_node27"><a xlink:href="https://github.com/Simple-Robotics/proxsuite" xlink:title="proxsuite&#10;0.4.0">
<ellipse fill="none" stroke="black" cx="538.51" cy="-439.92" rx="46.85" ry="28.99"/>
<text text-anchor="middle" x="538.51" y="-443.12" font-family="Times,serif" font-size="14.00">proxsuite</text>
<text text-anchor="middle" x="538.51" y="-426.62" font-family="Times,serif" font-size="14.00">0.4.0</text>
</a>
</g>
</g>
<!-- cmeel&#45;&gt;proxsuite -->
<g id="edge44" class="edge">
<title>cmeel&#45;&gt;proxsuite</title>
<path fill="none" stroke="black" d="M874.29,-648.95C783,-643.24 533.48,-625.27 509.51,-597.9 480.39,-564.64 498.82,-511.89 516.85,-476.85"/>
<polygon fill="black" stroke="black" points="520.24,-478.93 521.88,-468.46 514.07,-475.62 520.24,-478.93"/>
</g>
<!-- cmeel&#45;boost&#45;&gt;eigenpy -->
<g id="edge5" class="edge">
<title>cmeel&#45;boost&#45;&gt;eigenpy</title>
<path fill="none" stroke="black" d="M111.81,-544.78C169.65,-531.72 264.34,-508.53 343.51,-480.58 358.68,-475.23 374.85,-468.38 389.19,-461.89"/>
<polygon fill="black" stroke="black" points="390.17,-464.83 397.8,-457.48 387.25,-458.47 390.17,-464.83"/>
</g>
<!-- cmeel&#45;boost&#45;&gt;eiquadprog -->
<g id="edge32" class="edge">
<title>cmeel&#45;boost&#45;&gt;eiquadprog</title>
<path fill="none" stroke="black" d="M64.38,-528.03C66.7,-516.88 69.44,-503.73 72.08,-491.07"/>
<polygon fill="black" stroke="black" points="75.64,-492.1 74.26,-481.6 68.79,-490.68 75.64,-492.1"/>
</g>
<!-- numpy -->
<g id="node4" class="node">
<title>numpy</title>
<ellipse fill="none" stroke="black" cx="58.51" cy="-651.9" rx="37.02" ry="18"/>
<text text-anchor="middle" x="58.51" y="-646.85" font-family="Times,serif" font-size="14.00">numpy</text>
</g>
<!-- numpy&#45;&gt;cmeel&#45;boost -->
<g id="edge3" class="edge">
<title>numpy&#45;&gt;cmeel&#45;boost</title>
<path fill="none" stroke="black" d="M58.51,-633.47C58.51,-623.25 58.51,-609.91 58.51,-597.31"/>
<polygon fill="black" stroke="black" points="62.01,-597.52 58.51,-587.52 55.01,-597.52 62.01,-597.52"/>
</g>
<!-- cmeel&#45;eigen&#45;&gt;eigenpy -->
<g id="edge6" class="edge">
<title>cmeel&#45;eigen&#45;&gt;eigenpy</title>
<path fill="none" stroke="black" d="M387.08,-519.12C395.02,-505.45 403.99,-490.01 411.85,-476.48"/>
<polygon fill="black" stroke="black" points="415.35,-478.43 417.35,-468.02 409.3,-474.91 415.35,-478.43"/>
</g>
<!-- cmeel&#45;eigen&#45;&gt;eiquadprog -->
<g id="edge33" class="edge">
<title>cmeel&#45;eigen&#45;&gt;eiquadprog</title>
<path fill="none" stroke="black" d="M315.24,-535.76C266.11,-515.73 191.38,-485.28 139.92,-464.32"/>
<polygon fill="black" stroke="black" points="141.54,-460.79 130.96,-460.26 138.9,-467.27 141.54,-460.79"/>
</g>
<!-- cmeel&#45;eigen&#45;&gt;proxsuite -->
<g id="edge45" class="edge">
<title>cmeel&#45;eigen&#45;&gt;proxsuite</title>
<path fill="none" stroke="black" d="M408.76,-529.31C431.25,-515.1 459.07,-497.22 483.51,-480.58 488.94,-476.89 494.62,-472.92 500.17,-468.98"/>
<polygon fill="black" stroke="black" points="501.66,-471.5 507.75,-462.84 497.58,-465.81 501.66,-471.5"/>
</g>
<!-- eigenpy&#45;&gt;hpp&#45;fcl -->
<g id="edge11" class="edge">
<title>eigenpy&#45;&gt;hpp&#45;fcl</title>
<path fill="none" stroke="black" d="M432.51,-410.6C432.51,-399.4 432.51,-386.35 432.51,-374.28"/>
<polygon fill="black" stroke="black" points="436.01,-374.56 432.51,-364.56 429.01,-374.56 436.01,-374.56"/>
</g>
<!-- hpp&#45;fcl&#45;&gt;pin -->
<g id="edge23" class="edge">
<title>hpp&#45;fcl&#45;&gt;pin</title>
<path fill="none" stroke="black" d="M471.53,-330.93C682.77,-318.25 1688.31,-257.87 1917.8,-244.1"/>
<polygon fill="black" stroke="black" points="1917.98,-247.53 1927.76,-243.44 1917.56,-240.54 1917.98,-247.53"/>
</g>
<!-- cmeel&#45;assimp&#45;&gt;hpp&#45;fcl -->
<g id="edge8" class="edge">
<title>cmeel&#45;assimp&#45;&gt;hpp&#45;fcl</title>
<path fill="none" stroke="black" d="M620.76,-412.29C612.11,-407.77 603.11,-403.25 594.51,-399.27 555.77,-381.31 510.47,-363.69 477.65,-351.5"/>
<polygon fill="black" stroke="black" points="479.04,-347.92 468.45,-347.74 476.62,-354.48 479.04,-347.92"/>
</g>
<!-- cmeel&#45;octomap&#45;&gt;hpp&#45;fcl -->
<g id="edge9" class="edge">
<title>cmeel&#45;octomap&#45;&gt;hpp&#45;fcl</title>
<path fill="none" stroke="black" d="M311.49,-409.5C337.42,-393.6 369.03,-374.21 393.45,-359.23"/>
<polygon fill="black" stroke="black" points="395.06,-361.74 401.76,-353.52 391.4,-355.77 395.06,-361.74"/>
</g>
<!-- cmeel&#45;urdfdom&#45;headers&#45;&gt;cmeel&#45;urdfdom -->
<g id="edge17" class="edge">
<title>cmeel&#45;urdfdom&#45;headers&#45;&gt;cmeel&#45;urdfdom</title>
<path fill="none" stroke="black" d="M1967.75,-519.75C1953.86,-507.62 1938.3,-494.03 1924.07,-481.6"/>
<polygon fill="black" stroke="black" points="1926.7,-478.38 1916.87,-474.43 1922.1,-483.65 1926.7,-478.38"/>
</g>
<!-- cmeel&#45;urdfdom&#45;&gt;pin -->
<g id="edge21" class="edge">
<title>cmeel&#45;urdfdom&#45;&gt;pin</title>
<path fill="none" stroke="black" d="M1894.49,-400.35C1910.11,-364.87 1933.1,-312.64 1948.43,-277.83"/>
<polygon fill="black" stroke="black" points="1951.91,-279.62 1952.73,-269.06 1945.5,-276.8 1951.91,-279.62"/>
</g>
<!-- cmeel&#45;console&#45;bridge&#45;&gt;cmeel&#45;urdfdom -->
<g id="edge15" class="edge">
<title>cmeel&#45;console&#45;bridge&#45;&gt;cmeel&#45;urdfdom</title>
<path fill="none" stroke="black" d="M1035.81,-527.92C1048.16,-523.52 1061.09,-519.48 1073.51,-516.58 1332.26,-456.25 1648.51,-443.78 1795.34,-441.37"/>
<polygon fill="black" stroke="black" points="1795.09,-444.86 1805.04,-441.21 1794.99,-437.86 1795.09,-444.86"/>
</g>
<!-- cmeel&#45;tinyxml&#45;&gt;cmeel&#45;urdfdom -->
<g id="edge16" class="edge">
<title>cmeel&#45;tinyxml&#45;&gt;cmeel&#45;urdfdom</title>
<path fill="none" stroke="black" d="M1198.69,-528.11C1208.01,-523.63 1217.88,-519.52 1227.51,-516.58 1425.25,-456.34 1670.25,-443.51 1795.45,-441.13"/>
<polygon fill="black" stroke="black" points="1795.15,-444.62 1805.08,-440.95 1795.03,-437.62 1795.15,-444.62"/>
</g>
<!-- pin&#45;&gt;example&#45;robot&#45;data -->
<g id="edge25" class="edge">
<title>pin&#45;&gt;example&#45;robot&#45;data</title>
<path fill="none" stroke="black" d="M1972.28,-211.52C1974.53,-203.5 1977.05,-194.5 1979.54,-185.57"/>
<polygon fill="black" stroke="black" points="1983.13,-186.76 1982.45,-176.19 1976.38,-184.87 1983.13,-186.76"/>
</g>
<!-- pin&#45;&gt;tsid -->
<g id="edge28" class="edge">
<title>pin&#45;&gt;tsid</title>
<path fill="none" stroke="black" d="M1928.56,-237.22C1700.05,-224.06 451.96,-152.19 206.45,-138.06"/>
<polygon fill="black" stroke="black" points="206.71,-134.51 196.52,-137.43 206.31,-141.5 206.71,-134.51"/>
</g>
<!-- pin&#45;&gt;ndcurves -->
<g id="edge36" class="edge">
<title>pin&#45;&gt;ndcurves</title>
<path fill="none" stroke="black" d="M1995.31,-225.23C2021.08,-213.06 2058.5,-194.45 2089.51,-175.3 2095.16,-171.81 2100.98,-167.9 2106.61,-163.94"/>
<polygon fill="black" stroke="black" points="2108.17,-166.41 2114.24,-157.72 2104.08,-160.73 2108.17,-166.41"/>
</g>
<!-- example&#45;robot&#45;data&#45;&gt;crocoddyl -->
<g id="edge30" class="edge">
<title>example&#45;robot&#45;data&#45;&gt;crocoddyl</title>
<path fill="none" stroke="black" d="M1993.51,-93.57C1993.51,-85.59 1993.51,-77.22 1993.51,-69.27"/>
<polygon fill="black" stroke="black" points="1997.01,-69.4 1993.51,-59.4 1990.01,-69.4 1997.01,-69.4"/>
</g>
<!-- eiquadprog&#45;&gt;tsid -->
<g id="edge27" class="edge">
<title>eiquadprog&#45;&gt;tsid</title>
<path fill="none" stroke="black" d="M93.15,-399.59C108.99,-341.01 138.57,-231.59 154.21,-173.74"/>
<polygon fill="black" stroke="black" points="157.82,-174.79 157.05,-164.23 151.07,-172.97 157.82,-174.79"/>
</g>
<!-- scipy -->
<g id="node19" class="node">
<title>scipy</title>
<ellipse fill="none" stroke="black" cx="1858.51" cy="-134.64" rx="30.37" ry="18"/>
<text text-anchor="middle" x="1858.51" y="-129.59" font-family="Times,serif" font-size="14.00">scipy</text>
</g>
<!-- scipy&#45;&gt;crocoddyl -->
<g id="edge31" class="edge">
<title>scipy&#45;&gt;crocoddyl</title>
<path fill="none" stroke="black" d="M1872.28,-118.21C1879.45,-110.54 1888.58,-101.37 1897.51,-93.98 1913.92,-80.41 1933.26,-67.08 1950.26,-56.12"/>
<polygon fill="black" stroke="black" points="1951.87,-58.61 1958.44,-50.3 1948.12,-52.7 1951.87,-58.61"/>
</g>
<!-- cmeel&#45;cppad&#45;&gt;cmeel&#45;cppadcodegen -->
<g id="edge38" class="edge">
<title>cmeel&#45;cppad&#45;&gt;cmeel&#45;cppadcodegen</title>
<path fill="none" stroke="black" d="M784.63,-520.7C792.6,-510.26 801.44,-498.67 809.86,-487.64"/>
<polygon fill="black" stroke="black" points="813.21,-490.02 816.5,-479.95 807.65,-485.77 813.21,-490.02"/>
</g>
<!-- cmeel&#45;simde&#45;&gt;proxsuite -->
<g id="edge46" class="edge">
<title>cmeel&#45;simde&#45;&gt;proxsuite</title>
<path fill="none" stroke="black" d="M565.63,-517.2C561.2,-504.74 556.31,-490.99 551.92,-478.63"/>
<polygon fill="black" stroke="black" points="555.01,-477.89 548.37,-469.64 548.42,-480.23 555.01,-477.89"/>
</g>
</g>
</svg>
