<?xml version="1.0" encoding="UTF-8" standalone="no"?>
<!DOCTYPE svg PUBLIC "-//W3C//DTD SVG 1.1//EN"
 "http://www.w3.org/Graphics/SVG/1.1/DTD/svg11.dtd">
<!-- Generated by graphviz version 8.1.0 (0)
 -->
<!-- Pages: 1 -->
<svg width="3232pt" height="476pt"
 viewBox="0.00 0.00 3231.71 476.00" xmlns="http://www.w3.org/2000/svg" xmlns:xlink="http://www.w3.org/1999/xlink">
<g id="graph0" class="graph" transform="scale(1 1) rotate(0) translate(4 472)">
<polygon fill="white" stroke="none" points="-4,4 -4,-472 3227.71,-472 3227.71,4 -4,4"/>
<!-- cmeel&#45;example -->
<g id="node1" class="node">
<title>cmeel&#45;example</title>
<g id="a_node1"><a xlink:href="https://github.com/cmake-wheel/cmeel-example" xlink:title="cmeel&#45;example v0.5.3">
<ellipse fill="none" stroke="black" cx="3129.37" cy="-378" rx="94.34" ry="18"/>
<text text-anchor="middle" x="3129.37" y="-372.95" font-family="Times,serif" font-size="14.00">cmeel&#45;example v0.5.3</text>
</a>
</g>
</g>
<!-- cmeel -->
<g id="node2" class="node">
<title>cmeel</title>
<ellipse fill="none" stroke="black" cx="1517.37" cy="-450" rx="33.44" ry="18"/>
<text text-anchor="middle" x="1517.37" y="-444.95" font-family="Times,serif" font-size="14.00">cmeel</text>
</g>
<!-- cmeel&#45;&gt;cmeel&#45;example -->
<g id="edge1" class="edge">
<title>cmeel&#45;&gt;cmeel&#45;example</title>
<path fill="none" stroke="black" d="M1550.98,-448.41C1745.26,-444.9 2726.07,-425.93 3026.37,-396 3034.89,-395.15 3043.78,-394.03 3052.61,-392.78"/>
<polygon fill="black" stroke="black" points="3052.94,-396.12 3062.32,-391.19 3051.92,-389.2 3052.94,-396.12"/>
</g>
<!-- cmeel&#45;boost -->
<g id="node3" class="node">
<title>cmeel&#45;boost</title>
<g id="a_node3"><a xlink:href="https://github.com/cmake-wheel/cmeel-boost" xlink:title="cmeel&#45;boost v1.82.0">
<ellipse fill="none" stroke="black" cx="878.37" cy="-378" rx="87.18" ry="18"/>
<text text-anchor="middle" x="878.37" y="-372.95" font-family="Times,serif" font-size="14.00">cmeel&#45;boost v1.82.0</text>
</a>
</g>
</g>
<!-- cmeel&#45;&gt;cmeel&#45;boost -->
<g id="edge2" class="edge">
<title>cmeel&#45;&gt;cmeel&#45;boost</title>
<path fill="none" stroke="black" d="M1484.22,-446.53C1399.79,-440.07 1169.85,-421.38 979.37,-396 970.91,-394.87 962.07,-393.57 953.3,-392.2"/>
<polygon fill="black" stroke="black" points="954.08,-388.62 943.65,-390.5 952.98,-395.53 954.08,-388.62"/>
</g>
<!-- cmeel&#45;eigen -->
<g id="node5" class="node">
<title>cmeel&#45;eigen</title>
<g id="a_node5"><a xlink:href="https://github.com/cmake-wheel/cmeel-eigen" xlink:title="cmeel&#45;eigen v3.4.0.1">
<ellipse fill="none" stroke="black" cx="1337.37" cy="-378" rx="89.74" ry="18"/>
<text text-anchor="middle" x="1337.37" y="-372.95" font-family="Times,serif" font-size="14.00">cmeel&#45;eigen v3.4.0.1</text>
</a>
</g>
</g>
<!-- cmeel&#45;&gt;cmeel&#45;eigen -->
<g id="edge4" class="edge">
<title>cmeel&#45;&gt;cmeel&#45;eigen</title>
<path fill="none" stroke="black" d="M1490.81,-438.67C1463.69,-428.12 1420.93,-411.5 1387.44,-398.47"/>
<polygon fill="black" stroke="black" points="1388.95,-394.92 1378.36,-394.55 1386.42,-401.44 1388.95,-394.92"/>
</g>
<!-- eigenpy -->
<g id="node6" class="node">
<title>eigenpy</title>
<g id="a_node6"><a xlink:href="https://github.com/cmake-wheel/eigenpy" xlink:title="eigenpy v3.1.0">
<ellipse fill="none" stroke="black" cx="1337.37" cy="-306" rx="66.19" ry="18"/>
<text text-anchor="middle" x="1337.37" y="-300.95" font-family="Times,serif" font-size="14.00">eigenpy v3.1.0</text>
</a>
</g>
</g>
<!-- cmeel&#45;&gt;eigenpy -->
<g id="edge7" class="edge">
<title>cmeel&#45;&gt;eigenpy</title>
<path fill="none" stroke="black" d="M1505.57,-433.01C1490.91,-413.92 1464.38,-381.83 1436.37,-360 1419.63,-346.96 1399.23,-335.42 1381.3,-326.47"/>
<polygon fill="black" stroke="black" points="1383.16,-323 1372.64,-321.78 1380.1,-329.3 1383.16,-323"/>
</g>
<!-- hpp&#45;fcl -->
<g id="node7" class="node">
<title>hpp&#45;fcl</title>
<g id="a_node7"><a xlink:href="https://github.com/cmake-wheel/hpp-fcl" xlink:title="hpp&#45;fcl v2.3.4">
<ellipse fill="none" stroke="black" cx="1445.37" cy="-234" rx="63.63" ry="18"/>
<text text-anchor="middle" x="1445.37" y="-228.95" font-family="Times,serif" font-size="14.00">hpp&#45;fcl v2.3.4</text>
</a>
</g>
</g>
<!-- cmeel&#45;&gt;hpp&#45;fcl -->
<g id="edge10" class="edge">
<title>cmeel&#45;&gt;hpp&#45;fcl</title>
<path fill="none" stroke="black" d="M1550.91,-447.84C1619.83,-443.43 1776.57,-422.5 1844.37,-324 1853.44,-310.82 1854.91,-300.04 1844.37,-288 1823.22,-263.86 1626.99,-247.08 1517.82,-239.52"/>
<polygon fill="black" stroke="black" points="1518.11,-235.96 1507.89,-238.77 1517.63,-242.95 1518.11,-235.96"/>
</g>
<!-- cmeel&#45;assimp -->
<g id="node8" class="node">
<title>cmeel&#45;assimp</title>
<g id="a_node8"><a xlink:href="https://github.com/cmake-wheel/cmeel-assimp" xlink:title="cmeel&#45;assimp v5.2.5.1">
<ellipse fill="none" stroke="black" cx="1517.37" cy="-306" rx="95.88" ry="18"/>
<text text-anchor="middle" x="1517.37" y="-300.95" font-family="Times,serif" font-size="14.00">cmeel&#45;assimp v5.2.5.1</text>
</a>
</g>
</g>
<!-- cmeel&#45;&gt;cmeel&#45;assimp -->
<g id="edge12" class="edge">
<title>cmeel&#45;&gt;cmeel&#45;assimp</title>
<path fill="none" stroke="black" d="M1517.37,-431.59C1517.37,-407.5 1517.37,-363.75 1517.37,-335.03"/>
<polygon fill="black" stroke="black" points="1520.87,-335.11 1517.37,-325.11 1513.87,-335.11 1520.87,-335.11"/>
</g>
<!-- cmeel&#45;octomap -->
<g id="node9" class="node">
<title>cmeel&#45;octomap</title>
<g id="a_node9"><a xlink:href="https://github.com/cmake-wheel/cmeel-octomap" xlink:title="cmeel&#45;octomap v1.9.8.2">
<ellipse fill="none" stroke="black" cx="1733.37" cy="-306" rx="102.02" ry="18"/>
<text text-anchor="middle" x="1733.37" y="-300.95" font-family="Times,serif" font-size="14.00">cmeel&#45;octomap v1.9.8.2</text>
</a>
</g>
</g>
<!-- cmeel&#45;&gt;cmeel&#45;octomap -->
<g id="edge13" class="edge">
<title>cmeel&#45;&gt;cmeel&#45;octomap</title>
<path fill="none" stroke="black" d="M1538.08,-435.38C1575.14,-411.02 1653.18,-359.71 1698.59,-329.86"/>
<polygon fill="black" stroke="black" points="1700.32,-332.26 1706.75,-323.84 1696.48,-326.41 1700.32,-332.26"/>
</g>
<!-- cmeel&#45;urdfdom&#45;headers -->
<g id="node10" class="node">
<title>cmeel&#45;urdfdom&#45;headers</title>
<g id="a_node10"><a xlink:href="https://github.com/cmake-wheel/cmeel-urdfdom-headers" xlink:title="cmeel&#45;urdfdom&#45;headers v1.1.0">
<ellipse fill="none" stroke="black" cx="877.37" cy="-306" rx="126.08" ry="18"/>
<text text-anchor="middle" x="877.37" y="-300.95" font-family="Times,serif" font-size="14.00">cmeel&#45;urdfdom&#45;headers v1.1.0</text>
</a>
</g>
</g>
<!-- cmeel&#45;&gt;cmeel&#45;urdfdom&#45;headers -->
<g id="edge14" class="edge">
<title>cmeel&#45;&gt;cmeel&#45;urdfdom&#45;headers</title>
<path fill="none" stroke="black" d="M1483.96,-447.99C1386.17,-444.62 1102.04,-431.93 1017.37,-396 994.42,-386.26 994.96,-374.04 974.37,-360 957.67,-348.61 938.29,-337.62 921.26,-328.63"/>
<polygon fill="black" stroke="black" points="923.04,-325.09 912.55,-323.58 919.81,-331.3 923.04,-325.09"/>
</g>
<!-- cmeel&#45;urdfdom -->
<g id="node11" class="node">
<title>cmeel&#45;urdfdom</title>
<g id="a_node11"><a xlink:href="https://github.com/cmake-wheel/cmeel-urdfdom" xlink:title="cmeel&#45;urdfdom v3.1.0.3">
<ellipse fill="none" stroke="black" cx="756.37" cy="-234" rx="102.02" ry="18"/>
<text text-anchor="middle" x="756.37" y="-228.95" font-family="Times,serif" font-size="14.00">cmeel&#45;urdfdom v3.1.0.3</text>
</a>
</g>
</g>
<!-- cmeel&#45;&gt;cmeel&#45;urdfdom -->
<g id="edge18" class="edge">
<title>cmeel&#45;&gt;cmeel&#45;urdfdom</title>
<path fill="none" stroke="black" d="M1483.88,-447.37C1422.84,-443.59 1290.03,-431.66 1184.37,-396 1120.31,-374.38 1105.17,-363.6 1050.37,-324 1031.51,-310.37 1032.99,-298.77 1012.37,-288 965.52,-263.54 908.33,-250.36 859.89,-243.27"/>
<polygon fill="black" stroke="black" points="860.44,-239.67 850.06,-241.76 859.48,-246.61 860.44,-239.67"/>
</g>
<!-- cmeel&#45;console&#45;bridge -->
<g id="node12" class="node">
<title>cmeel&#45;console&#45;bridge</title>
<g id="a_node12"><a xlink:href="https://github.com/cmake-wheel/cmeel-console-bridge" xlink:title="cmeel&#45;console&#45;bridge v1.0.2.2">
<ellipse fill="none" stroke="black" cx="393.37" cy="-306" rx="124.54" ry="18"/>
<text text-anchor="middle" x="393.37" y="-300.95" font-family="Times,serif" font-size="14.00">cmeel&#45;console&#45;bridge v1.0.2.2</text>
</a>
</g>
</g>
<!-- cmeel&#45;&gt;cmeel&#45;console&#45;bridge -->
<g id="edge19" class="edge">
<title>cmeel&#45;&gt;cmeel&#45;console&#45;bridge</title>
<path fill="none" stroke="black" d="M1483.46,-449.34C1371.57,-449.92 1004.26,-447.49 706.37,-396 614.54,-380.13 511.09,-347.76 449.13,-326.74"/>
<polygon fill="black" stroke="black" points="450.4,-323.13 439.8,-323.21 448.13,-329.76 450.4,-323.13"/>
</g>
<!-- cmeel&#45;tinyxml -->
<g id="node13" class="node">
<title>cmeel&#45;tinyxml</title>
<g id="a_node13"><a xlink:href="https://github.com/cmake-wheel/cmeel-tinyxml" xlink:title="cmeel&#45;tinyxml v2.6.2.2">
<ellipse fill="none" stroke="black" cx="634.37" cy="-306" rx="98.95" ry="18"/>
<text text-anchor="middle" x="634.37" y="-300.95" font-family="Times,serif" font-size="14.00">cmeel&#45;tinyxml v2.6.2.2</text>
</a>
</g>
</g>
<!-- cmeel&#45;&gt;cmeel&#45;tinyxml -->
<g id="edge20" class="edge">
<title>cmeel&#45;&gt;cmeel&#45;tinyxml</title>
<path fill="none" stroke="black" d="M1483.68,-448.64C1357.85,-446.99 915.77,-438.25 782.37,-396 737.75,-381.87 692.51,-351.88 664,-330.62"/>
<polygon fill="black" stroke="black" points="666.44,-327.32 656.36,-324.06 662.21,-332.9 666.44,-327.32"/>
</g>
<!-- pin -->
<g id="node14" class="node">
<title>pin</title>
<g id="a_node14"><a xlink:href="https://github.com/cmake-wheel/pinocchio" xlink:title="pin v2.6.18">
<ellipse fill="none" stroke="black" cx="1440.37" cy="-162" rx="53.4" ry="18"/>
<text text-anchor="middle" x="1440.37" y="-156.95" font-family="Times,serif" font-size="14.00">pin v2.6.18</text>
</a>
</g>
</g>
<!-- cmeel&#45;&gt;pin -->
<g id="edge22" class="edge">
<title>cmeel&#45;&gt;pin</title>
<path fill="none" stroke="black" d="M1550.91,-449.79C1606.72,-449.64 1720.48,-442.98 1801.37,-396 1849.04,-368.31 1895.35,-332.17 1862.37,-288 1818.65,-229.46 1604.77,-188.63 1499.34,-171.71"/>
<polygon fill="black" stroke="black" points="1499.99,-168.11 1489.57,-170.01 1498.9,-175.03 1499.99,-168.11"/>
</g>
<!-- example&#45;robot&#45;data -->
<g id="node15" class="node">
<title>example&#45;robot&#45;data</title>
<g id="a_node15"><a xlink:href="https://github.com/cmake-wheel/example-robot-data" xlink:title="example&#45;robot&#45;data v4.0.7">
<ellipse fill="none" stroke="black" cx="226.37" cy="-90" rx="109.7" ry="18"/>
<text text-anchor="middle" x="226.37" y="-84.95" font-family="Times,serif" font-size="14.00">example&#45;robot&#45;data v4.0.7</text>
</a>
</g>
</g>
<!-- cmeel&#45;&gt;example&#45;robot&#45;data -->
<g id="edge24" class="edge">
<title>cmeel&#45;&gt;example&#45;robot&#45;data</title>
<path fill="none" stroke="black" d="M1483.93,-448.08C1280.39,-442.46 215.59,-412.3 186.37,-396 144.7,-372.77 126.37,-354.7 126.37,-307 126.37,-307 126.37,-307 126.37,-233 126.37,-184.43 165.97,-140.75 195.33,-115.05"/>
<polygon fill="black" stroke="black" points="197.31,-117.11 202.68,-107.97 192.78,-111.77 197.31,-117.11"/>
</g>
<!-- tsid -->
<g id="node16" class="node">
<title>tsid</title>
<g id="a_node16"><a xlink:href="https://github.com/cmake-wheel/tsid" xlink:title="tsid v1.7.0">
<ellipse fill="none" stroke="black" cx="1281.37" cy="-90" rx="50.33" ry="18"/>
<text text-anchor="middle" x="1281.37" y="-84.95" font-family="Times,serif" font-size="14.00">tsid v1.7.0</text>
</a>
</g>
</g>
<!-- cmeel&#45;&gt;tsid -->
<g id="edge26" class="edge">
<title>cmeel&#45;&gt;tsid</title>
<path fill="none" stroke="black" d="M1483.74,-447.99C1294.54,-442.27 368.97,-413.45 311.37,-396 238.27,-373.86 164.37,-383.37 164.37,-307 164.37,-307 164.37,-307 164.37,-233 164.37,-125.65 986.7,-97.98 1220.21,-92.28"/>
<polygon fill="black" stroke="black" points="1220.29,-95.76 1230.2,-92.02 1220.12,-88.76 1220.29,-95.76"/>
</g>
<!-- eiquadprog -->
<g id="node17" class="node">
<title>eiquadprog</title>
<g id="a_node17"><a xlink:href="https://github.com/cmake-wheel/eiquadprog" xlink:title="eiquadprog v1.2.6">
<ellipse fill="none" stroke="black" cx="1137.37" cy="-306" rx="78.48" ry="18"/>
<text text-anchor="middle" x="1137.37" y="-300.95" font-family="Times,serif" font-size="14.00">eiquadprog v1.2.6</text>
</a>
</g>
</g>
<!-- cmeel&#45;&gt;eiquadprog -->
<g id="edge34" class="edge">
<title>cmeel&#45;&gt;eiquadprog</title>
<path fill="none" stroke="black" d="M1483.8,-448.28C1429.52,-445.91 1320.3,-436.09 1238.37,-396 1206.82,-380.56 1177.5,-352.58 1158.67,-332.1"/>
<polygon fill="black" stroke="black" points="1161.79,-330.22 1152.5,-325.11 1156.58,-334.89 1161.79,-330.22"/>
</g>
<!-- crocoddyl -->
<g id="node18" class="node">
<title>crocoddyl</title>
<g id="a_node18"><a xlink:href="https://github.com/cmake-wheel/crocoddyl" xlink:title="crocoddyl v2.0.0">
<ellipse fill="none" stroke="black" cx="88.37" cy="-18" rx="73.87" ry="18"/>
<text text-anchor="middle" x="88.37" y="-12.95" font-family="Times,serif" font-size="14.00">crocoddyl v2.0.0</text>
</a>
</g>
</g>
<!-- cmeel&#45;&gt;crocoddyl -->
<g id="edge29" class="edge">
<title>cmeel&#45;&gt;crocoddyl</title>
<path fill="none" stroke="black" d="M1483.64,-447.93C1273.52,-441.24 152.16,-405.13 137.37,-396 98.94,-372.28 88.37,-352.15 88.37,-307 88.37,-307 88.37,-307 88.37,-161 88.37,-121.57 88.37,-75.97 88.37,-47.31"/>
<polygon fill="black" stroke="black" points="91.87,-47.49 88.37,-37.49 84.87,-47.49 91.87,-47.49"/>
</g>
<!-- ndcurves -->
<g id="node20" class="node">
<title>ndcurves</title>
<g id="a_node20"><a xlink:href="https://github.com/cmake-wheel/ndcurves" xlink:title="ndcurves v1.3.0">
<ellipse fill="none" stroke="black" cx="1759.37" cy="-90" rx="70.29" ry="18"/>
<text text-anchor="middle" x="1759.37" y="-84.95" font-family="Times,serif" font-size="14.00">ndcurves v1.3.0</text>
</a>
</g>
</g>
<!-- cmeel&#45;&gt;ndcurves -->
<g id="edge35" class="edge">
<title>cmeel&#45;&gt;ndcurves</title>
<path fill="none" stroke="black" d="M1550.74,-447.69C1662.52,-443.04 2019.06,-425.96 2060.37,-396 2095.33,-370.64 2099.37,-350.19 2099.37,-307 2099.37,-307 2099.37,-307 2099.37,-233 2099.37,-121.29 1941.14,-95.91 1840.57,-91.06"/>
<polygon fill="black" stroke="black" points="1840.95,-87.53 1830.82,-90.61 1840.66,-94.53 1840.95,-87.53"/>
</g>
<!-- cmeel&#45;cppad -->
<g id="node21" class="node">
<title>cmeel&#45;cppad</title>
<g id="a_node21"><a xlink:href="https://github.com/cmake-wheel/cmeel-cppad" xlink:title="cmeel&#45;cppad v20230000.0">
<ellipse fill="none" stroke="black" cx="2237.37" cy="-378" rx="109.7" ry="18"/>
<text text-anchor="middle" x="2237.37" y="-372.95" font-family="Times,serif" font-size="14.00">cmeel&#45;cppad v20230000.0</text>
</a>
</g>
</g>
<!-- cmeel&#45;&gt;cmeel&#45;cppad -->
<g id="edge37" class="edge">
<title>cmeel&#45;&gt;cmeel&#45;cppad</title>
<path fill="none" stroke="black" d="M1550.7,-446.59C1641.27,-439.94 1899.44,-420.16 2113.37,-396 2124.08,-394.79 2135.31,-393.41 2146.44,-391.97"/>
<polygon fill="black" stroke="black" points="2146.6,-395.35 2156.06,-390.58 2145.69,-388.41 2146.6,-395.35"/>
</g>
<!-- cmeel&#45;cppadcodegen -->
<g id="node22" class="node">
<title>cmeel&#45;cppadcodegen</title>
<g id="a_node22"><a xlink:href="https://github.com/cmake-wheel/cmeel-cppadcodegen" xlink:title="cmeel&#45;cppadcodegen v2.4.3">
<ellipse fill="none" stroke="black" cx="2309.37" cy="-306" rx="115.33" ry="18"/>
<text text-anchor="middle" x="2309.37" y="-300.95" font-family="Times,serif" font-size="14.00">cmeel&#45;cppadcodegen v2.4.3</text>
</a>
</g>
</g>
<!-- cmeel&#45;&gt;cmeel&#45;cppadcodegen -->
<g id="edge39" class="edge">
<title>cmeel&#45;&gt;cmeel&#45;cppadcodegen</title>
<path fill="none" stroke="black" d="M1551.08,-448.15C1704.24,-444.11 2328.33,-425.86 2356.37,-396 2373.92,-377.3 2355.9,-350.79 2337.32,-331.57"/>
<polygon fill="black" stroke="black" points="2340.29,-329.59 2330.7,-325.08 2335.38,-334.58 2340.29,-329.59"/>
</g>
<!-- pin3&#45;slam -->
<g id="node23" class="node">
<title>pin3&#45;slam</title>
<g id="a_node23"><a xlink:href="https://github.com/cmake-wheel/pin3-slam" xlink:title="pin3&#45;slam v1.6">
<ellipse fill="none" stroke="black" cx="626.37" cy="-162" rx="67.22" ry="18"/>
<text text-anchor="middle" x="626.37" y="-156.95" font-family="Times,serif" font-size="14.00">pin3&#45;slam v1.6</text>
</a>
</g>
</g>
<!-- cmeel&#45;&gt;pin3&#45;slam -->
<g id="edge40" class="edge">
<title>cmeel&#45;&gt;pin3&#45;slam</title>
<path fill="none" stroke="black" d="M1483.56,-448.51C1288.96,-445.32 317.59,-424.42 237.37,-324 219.22,-301.28 245.83,-224.6 255.37,-216 297.24,-178.24 452.47,-167.31 548.37,-164.2"/>
<polygon fill="black" stroke="black" points="548.3,-167.67 558.19,-163.87 548.08,-160.67 548.3,-167.67"/>
</g>
<!-- cmeel&#45;simde -->
<g id="node25" class="node">
<title>cmeel&#45;simde</title>
<g id="a_node25"><a xlink:href="https://github.com/cmake-wheel/cmeel-simde" xlink:title="cmeel&#45;simde v0.7.2">
<ellipse fill="none" stroke="black" cx="1948.37" cy="-378" rx="85.13" ry="18"/>
<text text-anchor="middle" x="1948.37" y="-372.95" font-family="Times,serif" font-size="14.00">cmeel&#45;simde v0.7.2</text>
</a>
</g>
</g>
<!-- cmeel&#45;&gt;cmeel&#45;simde -->
<g id="edge49" class="edge">
<title>cmeel&#45;&gt;cmeel&#45;simde</title>
<path fill="none" stroke="black" d="M1549.44,-444.01C1608.71,-434.76 1739.38,-414.22 1849.37,-396 1857.14,-394.71 1865.26,-393.35 1873.35,-391.98"/>
<polygon fill="black" stroke="black" points="1873.68,-395.3 1882.95,-390.17 1872.5,-388.4 1873.68,-395.3"/>
</g>
<!-- cmeel&#45;lapack -->
<g id="node26" class="node">
<title>cmeel&#45;lapack</title>
<g id="a_node26"><a xlink:href="https://github.com/cmake-wheel/cmeel-lapack" xlink:title="cmeel&#45;lapack v3.11.0">
<ellipse fill="none" stroke="black" cx="2494.37" cy="-378" rx="91.27" ry="18"/>
<text text-anchor="middle" x="2494.37" y="-372.95" font-family="Times,serif" font-size="14.00">cmeel&#45;lapack v3.11.0</text>
</a>
</g>
</g>
<!-- cmeel&#45;&gt;cmeel&#45;lapack -->
<g id="edge50" class="edge">
<title>cmeel&#45;&gt;cmeel&#45;lapack</title>
<path fill="none" stroke="black" d="M1550.73,-448.17C1666.83,-445.03 2063.77,-432.16 2389.37,-396 2398.5,-394.99 2408.05,-393.72 2417.51,-392.35"/>
<polygon fill="black" stroke="black" points="2417.76,-395.7 2427.13,-390.75 2416.72,-388.78 2417.76,-395.7"/>
</g>
<!-- cmeel&#45;yaml&#45;cpp -->
<g id="node27" class="node">
<title>cmeel&#45;yaml&#45;cpp</title>
<g id="a_node27"><a xlink:href="https://github.com/cmake-wheel/cmeel-yaml-cpp" xlink:title="cmeel&#45;yaml&#45;cpp v0.7.0">
<ellipse fill="none" stroke="black" cx="2701.37" cy="-378" rx="97.93" ry="18"/>
<text text-anchor="middle" x="2701.37" y="-372.95" font-family="Times,serif" font-size="14.00">cmeel&#45;yaml&#45;cpp v0.7.0</text>
</a>
</g>
</g>
<!-- cmeel&#45;&gt;cmeel&#45;yaml&#45;cpp -->
<g id="edge51" class="edge">
<title>cmeel&#45;&gt;cmeel&#45;yaml&#45;cpp</title>
<path fill="none" stroke="black" d="M1550.97,-448.67C1683.76,-447.09 2184.71,-438.5 2594.37,-396 2603.18,-395.09 2612.36,-393.93 2621.49,-392.66"/>
<polygon fill="black" stroke="black" points="2621.76,-396.01 2631.15,-391.12 2620.76,-389.09 2621.76,-396.01"/>
</g>
<!-- cmeel&#45;openblas -->
<g id="node28" class="node">
<title>cmeel&#45;openblas</title>
<g id="a_node28"><a xlink:href="https://github.com/cmake-wheel/cmeel-openblas" xlink:title="cmeel&#45;openblas v0.3.23">
<ellipse fill="none" stroke="black" cx="2917.37" cy="-378" rx="99.97" ry="18"/>
<text text-anchor="middle" x="2917.37" y="-372.95" font-family="Times,serif" font-size="14.00">cmeel&#45;openblas v0.3.23</text>
</a>
</g>
</g>
<!-- cmeel&#45;&gt;cmeel&#45;openblas -->
<g id="edge52" class="edge">
<title>cmeel&#45;&gt;cmeel&#45;openblas</title>
<path fill="none" stroke="black" d="M1550.88,-449.02C1699.03,-448.83 2309.97,-444.94 2808.37,-396 2817.51,-395.1 2827.05,-393.94 2836.52,-392.66"/>
<polygon fill="black" stroke="black" points="2836.74,-396.02 2846.16,-391.15 2835.76,-389.09 2836.74,-396.02"/>
</g>
<!-- proxsuite -->
<g id="node29" class="node">
<title>proxsuite</title>
<g id="a_node29"><a xlink:href="https://github.com/Simple-Robotics/proxsuite" xlink:title="proxsuite v0.4.0">
<ellipse fill="none" stroke="black" cx="2000.37" cy="-306" rx="71.31" ry="18"/>
<text text-anchor="middle" x="2000.37" y="-300.95" font-family="Times,serif" font-size="14.00">proxsuite v0.4.0</text>
</a>
</g>
</g>
<!-- cmeel&#45;&gt;proxsuite -->
<g id="edge53" class="edge">
<title>cmeel&#45;&gt;proxsuite</title>
<path fill="none" stroke="black" d="M1550.91,-448.17C1661.49,-445.08 2009.34,-432.52 2042.37,-396 2059.14,-377.45 2043.01,-351.03 2026.11,-331.79"/>
<polygon fill="black" stroke="black" points="2029.04,-329.72 2019.67,-324.77 2023.91,-334.48 2029.04,-329.72"/>
</g>
<!-- cmeel&#45;boost&#45;&gt;eigenpy -->
<g id="edge5" class="edge">
<title>cmeel&#45;boost&#45;&gt;eigenpy</title>
<path fill="none" stroke="black" d="M947.08,-366.52C1034.26,-353.23 1183.65,-330.44 1270.12,-317.26"/>
<polygon fill="black" stroke="black" points="1270.5,-320.59 1279.86,-315.62 1269.45,-313.67 1270.5,-320.59"/>
</g>
<!-- cmeel&#45;boost&#45;&gt;eiquadprog -->
<g id="edge32" class="edge">
<title>cmeel&#45;boost&#45;&gt;eiquadprog</title>
<path fill="none" stroke="black" d="M929.85,-363.09C972.46,-351.57 1033.04,-335.2 1077.75,-323.11"/>
<polygon fill="black" stroke="black" points="1078.44,-326.28 1087.18,-320.29 1076.61,-319.52 1078.44,-326.28"/>
</g>
<!-- cmeel&#45;boost&#45;&gt;pin3&#45;slam -->
<g id="edge41" class="edge">
<title>cmeel&#45;boost&#45;&gt;pin3&#45;slam</title>
<path fill="none" stroke="black" d="M791.38,-375.93C629.38,-373.02 294.61,-362.39 259.37,-324 168.98,-225.54 420.9,-184.19 552.29,-169.68"/>
<polygon fill="black" stroke="black" points="552.51,-173.07 562.07,-168.52 551.76,-166.11 552.51,-173.07"/>
</g>
<!-- numpy -->
<g id="node4" class="node">
<title>numpy</title>
<ellipse fill="none" stroke="black" cx="878.37" cy="-450" rx="37.02" ry="18"/>
<text text-anchor="middle" x="878.37" y="-444.95" font-family="Times,serif" font-size="14.00">numpy</text>
</g>
<!-- numpy&#45;&gt;cmeel&#45;boost -->
<g id="edge3" class="edge">
<title>numpy&#45;&gt;cmeel&#45;boost</title>
<path fill="none" stroke="black" d="M878.37,-431.7C878.37,-424.24 878.37,-415.32 878.37,-406.97"/>
<polygon fill="black" stroke="black" points="881.87,-407.1 878.37,-397.1 874.87,-407.1 881.87,-407.1"/>
</g>
<!-- cmeel&#45;eigen&#45;&gt;eigenpy -->
<g id="edge6" class="edge">
<title>cmeel&#45;eigen&#45;&gt;eigenpy</title>
<path fill="none" stroke="black" d="M1337.37,-359.7C1337.37,-352.24 1337.37,-343.32 1337.37,-334.97"/>
<polygon fill="black" stroke="black" points="1340.87,-335.1 1337.37,-325.1 1333.87,-335.1 1340.87,-335.1"/>
</g>
<!-- cmeel&#45;eigen&#45;&gt;eiquadprog -->
<g id="edge33" class="edge">
<title>cmeel&#45;eigen&#45;&gt;eiquadprog</title>
<path fill="none" stroke="black" d="M1293.97,-361.81C1263.18,-351.03 1221.72,-336.52 1189.19,-325.14"/>
<polygon fill="black" stroke="black" points="1190.56,-321.56 1179.97,-321.56 1188.25,-328.17 1190.56,-321.56"/>
</g>
<!-- cmeel&#45;eigen&#45;&gt;pin3&#45;slam -->
<g id="edge43" class="edge">
<title>cmeel&#45;eigen&#45;&gt;pin3&#45;slam</title>
<path fill="none" stroke="black" d="M1312.05,-360.44C1297.19,-350.4 1278.27,-337.04 1262.37,-324 1244.38,-309.25 1244.95,-298.85 1224.37,-288 1053.08,-197.73 822,-172.64 703.5,-165.67"/>
<polygon fill="black" stroke="black" points="703.91,-162.13 693.73,-165.07 703.52,-169.12 703.91,-162.13"/>
</g>
<!-- cmeel&#45;eigen&#45;&gt;proxsuite -->
<g id="edge54" class="edge">
<title>cmeel&#45;eigen&#45;&gt;proxsuite</title>
<path fill="none" stroke="black" d="M1415.55,-368.93C1515.14,-358.64 1692.57,-340.21 1844.37,-324 1870.68,-321.19 1899.48,-318.07 1925.09,-315.27"/>
<polygon fill="black" stroke="black" points="1925.3,-318.66 1934.86,-314.09 1924.54,-311.7 1925.3,-318.66"/>
</g>
<!-- eigenpy&#45;&gt;hpp&#45;fcl -->
<g id="edge11" class="edge">
<title>eigenpy&#45;&gt;hpp&#45;fcl</title>
<path fill="none" stroke="black" d="M1362.14,-288.94C1376.83,-279.43 1395.63,-267.24 1411.65,-256.86"/>
<polygon fill="black" stroke="black" points="1413.22,-259.36 1419.71,-250.98 1409.41,-253.49 1413.22,-259.36"/>
</g>
<!-- hpp&#45;fcl&#45;&gt;pin -->
<g id="edge23" class="edge">
<title>hpp&#45;fcl&#45;&gt;pin</title>
<path fill="none" stroke="black" d="M1444.13,-215.7C1443.6,-208.24 1442.96,-199.32 1442.36,-190.97"/>
<polygon fill="black" stroke="black" points="1445.79,-190.83 1441.59,-181.1 1438.81,-191.33 1445.79,-190.83"/>
</g>
<!-- hpp&#45;fcl&#45;&gt;pin3&#45;slam -->
<g id="edge47" class="edge">
<title>hpp&#45;fcl&#45;&gt;pin3&#45;slam</title>
<path fill="none" stroke="black" d="M1385.68,-227.51C1348.73,-224.13 1300.3,-219.74 1257.37,-216 1056.11,-198.45 818.65,-178.79 700.67,-169.09"/>
<polygon fill="black" stroke="black" points="701.22,-165.54 690.97,-168.21 700.65,-172.51 701.22,-165.54"/>
</g>
<!-- cmeel&#45;assimp&#45;&gt;hpp&#45;fcl -->
<g id="edge8" class="edge">
<title>cmeel&#45;assimp&#45;&gt;hpp&#45;fcl</title>
<path fill="none" stroke="black" d="M1499.94,-288.05C1491.09,-279.46 1480.19,-268.86 1470.46,-259.4"/>
<polygon fill="black" stroke="black" points="1473.25,-257.25 1463.64,-252.79 1468.37,-262.27 1473.25,-257.25"/>
</g>
<!-- cmeel&#45;octomap&#45;&gt;hpp&#45;fcl -->
<g id="edge9" class="edge">
<title>cmeel&#45;octomap&#45;&gt;hpp&#45;fcl</title>
<path fill="none" stroke="black" d="M1675.09,-290.83C1625.01,-278.66 1553.2,-261.21 1503.24,-249.07"/>
<polygon fill="black" stroke="black" points="1504.16,-245.45 1493.62,-246.48 1502.51,-252.25 1504.16,-245.45"/>
</g>
<!-- cmeel&#45;urdfdom&#45;headers&#45;&gt;cmeel&#45;urdfdom -->
<g id="edge17" class="edge">
<title>cmeel&#45;urdfdom&#45;headers&#45;&gt;cmeel&#45;urdfdom</title>
<path fill="none" stroke="black" d="M848.08,-288.05C831.91,-278.7 811.64,-266.98 794.28,-256.93"/>
<polygon fill="black" stroke="black" points="796.38,-253.53 785.97,-251.55 792.87,-259.58 796.38,-253.53"/>
</g>
<!-- cmeel&#45;urdfdom&#45;headers&#45;&gt;pin3&#45;slam -->
<g id="edge46" class="edge">
<title>cmeel&#45;urdfdom&#45;headers&#45;&gt;pin3&#45;slam</title>
<path fill="none" stroke="black" d="M880.83,-287.56C883.69,-267.67 884.85,-235.41 867.37,-216 845.28,-191.47 762.47,-177.27 700.04,-169.85"/>
<polygon fill="black" stroke="black" points="700.76,-166.29 690.42,-168.63 699.96,-173.25 700.76,-166.29"/>
</g>
<!-- cmeel&#45;urdfdom&#45;&gt;pin -->
<g id="edge21" class="edge">
<title>cmeel&#45;urdfdom&#45;&gt;pin</title>
<path fill="none" stroke="black" d="M843,-224.13C983.45,-209.76 1257.41,-181.72 1379.32,-169.25"/>
<polygon fill="black" stroke="black" points="1379.35,-172.66 1388.94,-168.16 1378.63,-165.7 1379.35,-172.66"/>
</g>
<!-- cmeel&#45;urdfdom&#45;&gt;pin3&#45;slam -->
<g id="edge45" class="edge">
<title>cmeel&#45;urdfdom&#45;&gt;pin3&#45;slam</title>
<path fill="none" stroke="black" d="M725.56,-216.41C707.32,-206.59 684.05,-194.06 664.64,-183.61"/>
<polygon fill="black" stroke="black" points="666.64,-180.17 656.17,-178.51 663.32,-186.33 666.64,-180.17"/>
</g>
<!-- cmeel&#45;console&#45;bridge&#45;&gt;cmeel&#45;urdfdom -->
<g id="edge15" class="edge">
<title>cmeel&#45;console&#45;bridge&#45;&gt;cmeel&#45;urdfdom</title>
<path fill="none" stroke="black" d="M465.95,-291C527.56,-279.12 615.74,-262.12 678.74,-249.97"/>
<polygon fill="black" stroke="black" points="679.26,-253.24 688.42,-247.91 677.93,-246.37 679.26,-253.24"/>
</g>
<!-- cmeel&#45;console&#45;bridge&#45;&gt;pin3&#45;slam -->
<g id="edge42" class="edge">
<title>cmeel&#45;console&#45;bridge&#45;&gt;pin3&#45;slam</title>
<path fill="none" stroke="black" d="M477.37,-292.4C508.54,-284.62 542.76,-272.1 569.37,-252 590.34,-236.16 605.69,-210.18 615.14,-190.37"/>
<polygon fill="black" stroke="black" points="618.73,-191.93 619.67,-181.38 612.35,-189.04 618.73,-191.93"/>
</g>
<!-- cmeel&#45;tinyxml&#45;&gt;cmeel&#45;urdfdom -->
<g id="edge16" class="edge">
<title>cmeel&#45;tinyxml&#45;&gt;cmeel&#45;urdfdom</title>
<path fill="none" stroke="black" d="M663.28,-288.41C679.57,-279.06 700.13,-267.27 717.78,-257.14"/>
<polygon fill="black" stroke="black" points="719.31,-259.73 726.24,-251.71 715.82,-253.65 719.31,-259.73"/>
</g>
<!-- cmeel&#45;tinyxml&#45;&gt;pin3&#45;slam -->
<g id="edge44" class="edge">
<title>cmeel&#45;tinyxml&#45;&gt;pin3&#45;slam</title>
<path fill="none" stroke="black" d="M633.39,-287.59C632.03,-263.5 629.56,-219.75 627.95,-191.03"/>
<polygon fill="black" stroke="black" points="631.39,-190.9 627.33,-181.11 624.4,-191.29 631.39,-190.9"/>
</g>
<!-- pin&#45;&gt;example&#45;robot&#45;data -->
<g id="edge25" class="edge">
<title>pin&#45;&gt;example&#45;robot&#45;data</title>
<path fill="none" stroke="black" d="M1387.81,-157.97C1204.98,-147.43 594.03,-112.2 339.34,-97.51"/>
<polygon fill="black" stroke="black" points="339.77,-93.98 329.59,-96.89 339.37,-100.96 339.77,-93.98"/>
</g>
<!-- pin&#45;&gt;tsid -->
<g id="edge28" class="edge">
<title>pin&#45;&gt;tsid</title>
<path fill="none" stroke="black" d="M1408.95,-147.17C1384.08,-136.22 1349.14,-120.84 1322.11,-108.94"/>
<polygon fill="black" stroke="black" points="1323.74,-105.39 1313.17,-104.56 1320.92,-111.8 1323.74,-105.39"/>
</g>
<!-- pin&#45;&gt;ndcurves -->
<g id="edge36" class="edge">
<title>pin&#45;&gt;ndcurves</title>
<path fill="none" stroke="black" d="M1484.39,-151.34C1539.48,-139.25 1634.2,-118.47 1696.81,-104.73"/>
<polygon fill="black" stroke="black" points="1697.32,-107.98 1706.34,-102.42 1695.82,-101.14 1697.32,-107.98"/>
</g>
<!-- example&#45;robot&#45;data&#45;&gt;crocoddyl -->
<g id="edge30" class="edge">
<title>example&#45;robot&#45;data&#45;&gt;crocoddyl</title>
<path fill="none" stroke="black" d="M193.66,-72.41C174.35,-62.61 149.73,-50.12 129.15,-39.69"/>
<polygon fill="black" stroke="black" points="130.92,-36.15 120.42,-34.75 127.75,-42.39 130.92,-36.15"/>
</g>
<!-- eiquadprog&#45;&gt;tsid -->
<g id="edge27" class="edge">
<title>eiquadprog&#45;&gt;tsid</title>
<path fill="none" stroke="black" d="M1148.91,-287.85C1174.09,-250.43 1234.09,-161.25 1263.92,-116.93"/>
<polygon fill="black" stroke="black" points="1267.29,-119.19 1269.97,-108.94 1261.48,-115.28 1267.29,-119.19"/>
</g>
<!-- scipy -->
<g id="node19" class="node">
<title>scipy</title>
<ellipse fill="none" stroke="black" cx="30.37" cy="-90" rx="30.37" ry="18"/>
<text text-anchor="middle" x="30.37" y="-84.95" font-family="Times,serif" font-size="14.00">scipy</text>
</g>
<!-- scipy&#45;&gt;crocoddyl -->
<g id="edge31" class="edge">
<title>scipy&#45;&gt;crocoddyl</title>
<path fill="none" stroke="black" d="M43.24,-73.46C50.36,-64.87 59.39,-53.97 67.5,-44.19"/>
<polygon fill="black" stroke="black" points="70.63,-46.9 74.31,-36.96 65.24,-42.43 70.63,-46.9"/>
</g>
<!-- cmeel&#45;cppad&#45;&gt;cmeel&#45;cppadcodegen -->
<g id="edge38" class="edge">
<title>cmeel&#45;cppad&#45;&gt;cmeel&#45;cppadcodegen</title>
<path fill="none" stroke="black" d="M2254.8,-360.05C2263.51,-351.58 2274.22,-341.17 2283.84,-331.82"/>
<polygon fill="black" stroke="black" points="2285.87,-334.76 2290.6,-325.28 2280.99,-329.74 2285.87,-334.76"/>
</g>
<!-- casadi -->
<g id="node24" class="node">
<title>casadi</title>
<ellipse fill="none" stroke="black" cx="526.37" cy="-234" rx="33.95" ry="18"/>
<text text-anchor="middle" x="526.37" y="-228.95" font-family="Times,serif" font-size="14.00">casadi</text>
</g>
<!-- casadi&#45;&gt;pin3&#45;slam -->
<g id="edge48" class="edge">
<title>casadi&#45;&gt;pin3&#45;slam</title>
<path fill="none" stroke="black" d="M546.12,-219.17C559.83,-209.58 578.39,-196.59 594.2,-185.51"/>
<polygon fill="black" stroke="black" points="595.96,-187.86 602.14,-179.26 591.94,-182.12 595.96,-187.86"/>
</g>
<!-- cmeel&#45;simde&#45;&gt;proxsuite -->
<g id="edge55" class="edge">
<title>cmeel&#45;simde&#45;&gt;proxsuite</title>
<path fill="none" stroke="black" d="M1960.96,-360.05C1967.09,-351.8 1974.59,-341.7 1981.4,-332.54"/>
<polygon fill="black" stroke="black" points="1984.74,-334.9 1987.9,-324.79 1979.12,-330.73 1984.74,-334.9"/>
</g>
</g>
</svg>
