<?xml version="1.0" encoding="UTF-8" standalone="no"?>
<!DOCTYPE svg PUBLIC "-//W3C//DTD SVG 1.1//EN"
 "http://www.w3.org/Graphics/SVG/1.1/DTD/svg11.dtd">
<!-- Generated by graphviz version 8.1.0 (0)
 -->
<!-- Pages: 1 -->
<svg width="2492pt" height="701pt"
 viewBox="0.00 0.00 2492.08 701.23" xmlns="http://www.w3.org/2000/svg" xmlns:xlink="http://www.w3.org/1999/xlink">
<g id="graph0" class="graph" transform="scale(1 1) rotate(0) translate(4 697.23)">
<polygon fill="white" stroke="none" points="-4,4 -4,-697.23 2488.08,-697.23 2488.08,4 -4,4"/>
<!-- cmeel&#45;example -->
<g id="node1" class="node">
<title>cmeel&#45;example</title>
<g id="a_node1"><a xlink:href="https://github.com/cmake-wheel/cmeel-example" xlink:title="cmeel&#45;example&#10;0.5.3">
<ellipse fill="none" stroke="black" cx="2413.37" cy="-580.58" rx="70.71" ry="28.99"/>
<text text-anchor="middle" x="2413.37" y="-583.78" font-family="Times,serif" font-size="14.00">cmeel&#45;example</text>
<text text-anchor="middle" x="2413.37" y="-567.28" font-family="Times,serif" font-size="14.00">0.5.3</text>
</a>
</g>
</g>
<!-- cmeel -->
<g id="node2" class="node">
<title>cmeel</title>
<ellipse fill="none" stroke="black" cx="1224.37" cy="-675.23" rx="33.44" ry="18"/>
<text text-anchor="middle" x="1224.37" y="-670.18" font-family="Times,serif" font-size="14.00">cmeel</text>
</g>
<!-- cmeel&#45;&gt;cmeel&#45;example -->
<g id="edge1" class="edge">
<title>cmeel&#45;&gt;cmeel&#45;example</title>
<path fill="none" stroke="black" d="M1258.11,-674.5C1420.63,-675.5 2123.61,-676.51 2334.37,-621.23 2344.61,-618.55 2355.07,-614.43 2364.89,-609.84"/>
<polygon fill="black" stroke="black" points="2366.03,-612.69 2373.46,-605.14 2362.94,-606.41 2366.03,-612.69"/>
</g>
<!-- cmeel&#45;boost -->
<g id="node3" class="node">
<title>cmeel&#45;boost</title>
<g id="a_node3"><a xlink:href="https://github.com/cmake-wheel/cmeel-boost" xlink:title="cmeel&#45;boost&#10;1.82.0">
<ellipse fill="none" stroke="black" cx="741.37" cy="-580.58" rx="58.51" ry="28.99"/>
<text text-anchor="middle" x="741.37" y="-583.78" font-family="Times,serif" font-size="14.00">cmeel&#45;boost</text>
<text text-anchor="middle" x="741.37" y="-567.28" font-family="Times,serif" font-size="14.00">1.82.0</text>
</a>
</g>
</g>
<!-- cmeel&#45;&gt;cmeel&#45;boost -->
<g id="edge2" class="edge">
<title>cmeel&#45;&gt;cmeel&#45;boost</title>
<path fill="none" stroke="black" d="M1190.51,-674.03C1119.16,-672.69 948.89,-664.79 814.37,-621.23 804.89,-618.17 795.22,-613.87 786.15,-609.23"/>
<polygon fill="black" stroke="black" points="788.04,-605.74 777.57,-604.1 784.74,-611.91 788.04,-605.74"/>
</g>
<!-- cmeel&#45;eigen -->
<g id="node5" class="node">
<title>cmeel&#45;eigen</title>
<g id="a_node5"><a xlink:href="https://github.com/cmake-wheel/cmeel-eigen" xlink:title="cmeel&#45;eigen&#10;3.4.0.1&#10;any">
<ellipse fill="none" stroke="black" cx="1099.37" cy="-580.58" rx="58.51" ry="40.66"/>
<text text-anchor="middle" x="1099.37" y="-592.03" font-family="Times,serif" font-size="14.00">cmeel&#45;eigen</text>
<text text-anchor="middle" x="1099.37" y="-575.53" font-family="Times,serif" font-size="14.00">3.4.0.1</text>
<text text-anchor="middle" x="1099.37" y="-559.03" font-family="Times,serif" font-size="14.00">any</text>
</a>
</g>
</g>
<!-- cmeel&#45;&gt;cmeel&#45;eigen -->
<g id="edge4" class="edge">
<title>cmeel&#45;&gt;cmeel&#45;eigen</title>
<path fill="none" stroke="black" d="M1205.38,-660.16C1190.09,-648.83 1167.91,-632.38 1147.78,-617.46"/>
<polygon fill="black" stroke="black" points="1150.12,-614.1 1140,-610.96 1145.95,-619.72 1150.12,-614.1"/>
</g>
<!-- eigenpy -->
<g id="node6" class="node">
<title>eigenpy</title>
<g id="a_node6"><a xlink:href="https://github.com/cmake-wheel/eigenpy" xlink:title="eigenpy&#10;3.1.0">
<ellipse fill="none" stroke="black" cx="1100.37" cy="-463.26" rx="41.54" ry="28.99"/>
<text text-anchor="middle" x="1100.37" y="-466.46" font-family="Times,serif" font-size="14.00">eigenpy</text>
<text text-anchor="middle" x="1100.37" y="-449.96" font-family="Times,serif" font-size="14.00">3.1.0</text>
</a>
</g>
</g>
<!-- cmeel&#45;&gt;eigenpy -->
<g id="edge7" class="edge">
<title>cmeel&#45;&gt;eigenpy</title>
<path fill="none" stroke="black" d="M1219.14,-657.26C1210.61,-630.91 1192.11,-579.12 1167.37,-539.92 1157.29,-523.94 1143.83,-508.03 1131.63,-494.94"/>
<polygon fill="black" stroke="black" points="1134.67,-493.01 1125.23,-488.18 1129.6,-497.84 1134.67,-493.01"/>
</g>
<!-- hpp&#45;fcl -->
<g id="node7" class="node">
<title>hpp&#45;fcl</title>
<g id="a_node7"><a xlink:href="https://github.com/cmake-wheel/hpp-fcl" xlink:title="hpp&#45;fcl&#10;2.3.4">
<ellipse fill="none" stroke="black" cx="1179.37" cy="-345.94" rx="38.89" ry="28.99"/>
<text text-anchor="middle" x="1179.37" y="-349.14" font-family="Times,serif" font-size="14.00">hpp&#45;fcl</text>
<text text-anchor="middle" x="1179.37" y="-332.64" font-family="Times,serif" font-size="14.00">2.3.4</text>
</a>
</g>
</g>
<!-- cmeel&#45;&gt;hpp&#45;fcl -->
<g id="edge10" class="edge">
<title>cmeel&#45;&gt;hpp&#45;fcl</title>
<path fill="none" stroke="black" d="M1247.02,-661.48C1301.28,-630.38 1435.89,-549.84 1458.37,-503.92 1474.25,-471.46 1480.33,-451.31 1458.37,-422.6 1430.56,-386.25 1300.76,-363.29 1228.41,-353.09"/>
<polygon fill="black" stroke="black" points="1229.13,-349.52 1218.74,-351.62 1228.17,-356.46 1229.13,-349.52"/>
</g>
<!-- cmeel&#45;assimp -->
<g id="node8" class="node">
<title>cmeel&#45;assimp</title>
<g id="a_node8"><a xlink:href="https://github.com/cmake-wheel/cmeel-assimp" xlink:title="cmeel&#45;assimp&#10;5.2.5.1&#10;py3">
<ellipse fill="none" stroke="black" cx="1224.37" cy="-463.26" rx="64.88" ry="40.66"/>
<text text-anchor="middle" x="1224.37" y="-474.71" font-family="Times,serif" font-size="14.00">cmeel&#45;assimp</text>
<text text-anchor="middle" x="1224.37" y="-458.21" font-family="Times,serif" font-size="14.00">5.2.5.1</text>
<text text-anchor="middle" x="1224.37" y="-441.71" font-family="Times,serif" font-size="14.00">py3</text>
</a>
</g>
</g>
<!-- cmeel&#45;&gt;cmeel&#45;assimp -->
<g id="edge12" class="edge">
<title>cmeel&#45;&gt;cmeel&#45;assimp</title>
<path fill="none" stroke="black" d="M1224.37,-657.05C1224.37,-626.38 1224.37,-561.1 1224.37,-515.02"/>
<polygon fill="black" stroke="black" points="1227.87,-515.04 1224.37,-505.04 1220.87,-515.04 1227.87,-515.04"/>
</g>
<!-- cmeel&#45;octomap -->
<g id="node9" class="node">
<title>cmeel&#45;octomap</title>
<g id="a_node9"><a xlink:href="https://github.com/cmake-wheel/cmeel-octomap" xlink:title="cmeel&#45;octomap&#10;1.9.8.2&#10;py3">
<ellipse fill="none" stroke="black" cx="1378.37" cy="-463.26" rx="71.24" ry="40.66"/>
<text text-anchor="middle" x="1378.37" y="-474.71" font-family="Times,serif" font-size="14.00">cmeel&#45;octomap</text>
<text text-anchor="middle" x="1378.37" y="-458.21" font-family="Times,serif" font-size="14.00">1.9.8.2</text>
<text text-anchor="middle" x="1378.37" y="-441.71" font-family="Times,serif" font-size="14.00">py3</text>
</a>
</g>
</g>
<!-- cmeel&#45;&gt;cmeel&#45;octomap -->
<g id="edge13" class="edge">
<title>cmeel&#45;&gt;cmeel&#45;octomap</title>
<path fill="none" stroke="black" d="M1236.2,-658.11C1259.16,-626.8 1310.51,-556.78 1344.8,-510.03"/>
<polygon fill="black" stroke="black" points="1348.11,-512.43 1351.2,-502.3 1342.47,-508.29 1348.11,-512.43"/>
</g>
<!-- cmeel&#45;urdfdom&#45;headers -->
<g id="node10" class="node">
<title>cmeel&#45;urdfdom&#45;headers</title>
<g id="a_node10"><a xlink:href="https://github.com/cmake-wheel/cmeel-urdfdom-headers" xlink:title="cmeel&#45;urdfdom&#45;headers&#10;1.1.0&#10;any">
<ellipse fill="none" stroke="black" cx="734.37" cy="-463.26" rx="103.59" ry="40.66"/>
<text text-anchor="middle" x="734.37" y="-474.71" font-family="Times,serif" font-size="14.00">cmeel&#45;urdfdom&#45;headers</text>
<text text-anchor="middle" x="734.37" y="-458.21" font-family="Times,serif" font-size="14.00">1.1.0</text>
<text text-anchor="middle" x="734.37" y="-441.71" font-family="Times,serif" font-size="14.00">any</text>
</a>
</g>
</g>
<!-- cmeel&#45;&gt;cmeel&#45;urdfdom&#45;headers -->
<g id="edge14" class="edge">
<title>cmeel&#45;&gt;cmeel&#45;urdfdom&#45;headers</title>
<path fill="none" stroke="black" d="M1190.7,-673.28C1109.7,-670.39 906.66,-659.42 852.37,-621.23 818.93,-597.72 833.58,-572.86 809.37,-539.92 801.42,-529.1 791.94,-518.33 782.45,-508.46"/>
<polygon fill="black" stroke="black" points="785.37,-506.42 775.87,-501.74 780.38,-511.33 785.37,-506.42"/>
</g>
<!-- cmeel&#45;urdfdom -->
<g id="node11" class="node">
<title>cmeel&#45;urdfdom</title>
<g id="a_node11"><a xlink:href="https://github.com/cmake-wheel/cmeel-urdfdom" xlink:title="cmeel&#45;urdfdom&#10;3.1.0.3&#10;py3">
<ellipse fill="none" stroke="black" cx="639.37" cy="-345.94" rx="71.24" ry="40.66"/>
<text text-anchor="middle" x="639.37" y="-357.39" font-family="Times,serif" font-size="14.00">cmeel&#45;urdfdom</text>
<text text-anchor="middle" x="639.37" y="-340.89" font-family="Times,serif" font-size="14.00">3.1.0.3</text>
<text text-anchor="middle" x="639.37" y="-324.39" font-family="Times,serif" font-size="14.00">py3</text>
</a>
</g>
</g>
<!-- cmeel&#45;&gt;cmeel&#45;urdfdom -->
<g id="edge18" class="edge">
<title>cmeel&#45;&gt;cmeel&#45;urdfdom</title>
<path fill="none" stroke="black" d="M1190.64,-674.69C1139.08,-673.83 1039.37,-665.93 970.37,-621.23 916.32,-586.23 918.03,-559.4 885.37,-503.92 865.13,-469.54 876.79,-449.54 847.37,-422.6 811.7,-389.95 760.84,-371.12 718.34,-360.41"/>
<polygon fill="black" stroke="black" points="719.27,-356.79 708.73,-357.86 717.64,-363.6 719.27,-356.79"/>
</g>
<!-- cmeel&#45;console&#45;bridge -->
<g id="node12" class="node">
<title>cmeel&#45;console&#45;bridge</title>
<g id="a_node12"><a xlink:href="https://github.com/cmake-wheel/cmeel-console-bridge" xlink:title="cmeel&#45;console&#45;bridge&#10;1.0.2.2&#10;py3">
<ellipse fill="none" stroke="black" cx="363.37" cy="-463.26" rx="94.58" ry="40.66"/>
<text text-anchor="middle" x="363.37" y="-474.71" font-family="Times,serif" font-size="14.00">cmeel&#45;console&#45;bridge</text>
<text text-anchor="middle" x="363.37" y="-458.21" font-family="Times,serif" font-size="14.00">1.0.2.2</text>
<text text-anchor="middle" x="363.37" y="-441.71" font-family="Times,serif" font-size="14.00">py3</text>
</a>
</g>
</g>
<!-- cmeel&#45;&gt;cmeel&#45;console&#45;bridge -->
<g id="edge19" class="edge">
<title>cmeel&#45;&gt;cmeel&#45;console&#45;bridge</title>
<path fill="none" stroke="black" d="M1190.83,-673.74C1076.08,-671.71 700.07,-662.01 587.37,-621.23 518.92,-596.47 452.13,-545.09 409.56,-507.84"/>
<polygon fill="black" stroke="black" points="412.18,-505.6 402.37,-501.59 407.54,-510.84 412.18,-505.6"/>
</g>
<!-- cmeel&#45;tinyxml -->
<g id="node13" class="node">
<title>cmeel&#45;tinyxml</title>
<g id="a_node13"><a xlink:href="https://github.com/cmake-wheel/cmeel-tinyxml" xlink:title="cmeel&#45;tinyxml&#10;2.6.2.2&#10;py3">
<ellipse fill="none" stroke="black" cx="544.37" cy="-463.26" rx="68.06" ry="40.66"/>
<text text-anchor="middle" x="544.37" y="-474.71" font-family="Times,serif" font-size="14.00">cmeel&#45;tinyxml</text>
<text text-anchor="middle" x="544.37" y="-458.21" font-family="Times,serif" font-size="14.00">2.6.2.2</text>
<text text-anchor="middle" x="544.37" y="-441.71" font-family="Times,serif" font-size="14.00">py3</text>
</a>
</g>
</g>
<!-- cmeel&#45;&gt;cmeel&#45;tinyxml -->
<g id="edge20" class="edge">
<title>cmeel&#45;&gt;cmeel&#45;tinyxml</title>
<path fill="none" stroke="black" d="M1190.6,-674.32C1085.16,-674.09 763.7,-669.35 673.37,-621.23 627.3,-596.7 591.39,-548.09 569.29,-511.43"/>
<polygon fill="black" stroke="black" points="572.06,-510.23 563.97,-503.38 566.02,-513.78 572.06,-510.23"/>
</g>
<!-- pin -->
<g id="node14" class="node">
<title>pin</title>
<g id="a_node14"><a xlink:href="https://github.com/cmake-wheel/pinocchio" xlink:title="pin&#10;2.6.18">
<ellipse fill="none" stroke="black" cx="1178.37" cy="-240.29" rx="35.71" ry="28.99"/>
<text text-anchor="middle" x="1178.37" y="-243.49" font-family="Times,serif" font-size="14.00">pin</text>
<text text-anchor="middle" x="1178.37" y="-226.99" font-family="Times,serif" font-size="14.00">2.6.18</text>
</a>
</g>
</g>
<!-- cmeel&#45;&gt;pin -->
<g id="edge22" class="edge">
<title>cmeel&#45;&gt;pin</title>
<path fill="none" stroke="black" d="M1256.32,-669.38C1290.87,-662.93 1346.35,-648.95 1386.37,-621.23 1441.29,-583.19 1458.23,-566.96 1480.37,-503.92 1492.34,-469.82 1498.17,-454.05 1480.37,-422.6 1424.71,-324.27 1292.08,-273.43 1222.58,-252.75"/>
<polygon fill="black" stroke="black" points="1223.97,-249.22 1213.39,-249.8 1222.02,-255.95 1223.97,-249.22"/>
</g>
<!-- example&#45;robot&#45;data -->
<g id="node15" class="node">
<title>example&#45;robot&#45;data</title>
<g id="a_node15"><a xlink:href="https://github.com/cmake-wheel/example-robot-data" xlink:title="example&#45;robot&#45;data&#10;4.0.7&#10;pyver">
<ellipse fill="none" stroke="black" cx="203.37" cy="-134.64" rx="86.62" ry="40.66"/>
<text text-anchor="middle" x="203.37" y="-146.09" font-family="Times,serif" font-size="14.00">example&#45;robot&#45;data</text>
<text text-anchor="middle" x="203.37" y="-129.59" font-family="Times,serif" font-size="14.00">4.0.7</text>
<text text-anchor="middle" x="203.37" y="-113.09" font-family="Times,serif" font-size="14.00">pyver</text>
</a>
</g>
</g>
<!-- cmeel&#45;&gt;example&#45;robot&#45;data -->
<g id="edge24" class="edge">
<title>cmeel&#45;&gt;example&#45;robot&#45;data</title>
<path fill="none" stroke="black" d="M1190.98,-672.81C1013.11,-665.18 184.65,-629.25 174.37,-621.23 116.83,-576.38 126.37,-537.21 126.37,-464.26 126.37,-464.26 126.37,-464.26 126.37,-344.94 126.37,-286.87 152.79,-225.01 174.69,-183.72"/>
<polygon fill="black" stroke="black" points="178.16,-185.66 179.85,-175.21 172,-182.33 178.16,-185.66"/>
</g>
<!-- tsid -->
<g id="node16" class="node">
<title>tsid</title>
<g id="a_node16"><a xlink:href="https://github.com/cmake-wheel/tsid" xlink:title="tsid&#10;1.7.0">
<ellipse fill="none" stroke="black" cx="1068.37" cy="-134.64" rx="30.94" ry="28.99"/>
<text text-anchor="middle" x="1068.37" y="-137.84" font-family="Times,serif" font-size="14.00">tsid</text>
<text text-anchor="middle" x="1068.37" y="-121.34" font-family="Times,serif" font-size="14.00">1.7.0</text>
</a>
</g>
</g>
<!-- cmeel&#45;&gt;tsid -->
<g id="edge26" class="edge">
<title>cmeel&#45;&gt;tsid</title>
<path fill="none" stroke="black" d="M1190.77,-672.82C1022.53,-665.7 278.77,-633.55 258.37,-621.23 188.75,-579.21 164.37,-545.58 164.37,-464.26 164.37,-464.26 164.37,-464.26 164.37,-344.94 164.37,-165.64 847.87,-139.91 1026.22,-136.24"/>
<polygon fill="black" stroke="black" points="1026.06,-139.73 1035.99,-136.04 1025.92,-132.73 1026.06,-139.73"/>
</g>
<!-- eiquadprog -->
<g id="node17" class="node">
<title>eiquadprog</title>
<g id="a_node17"><a xlink:href="https://github.com/cmake-wheel/eiquadprog" xlink:title="eiquadprog&#10;1.2.6&#10;py3">
<ellipse fill="none" stroke="black" cx="948.37" cy="-463.26" rx="54.27" ry="40.66"/>
<text text-anchor="middle" x="948.37" y="-474.71" font-family="Times,serif" font-size="14.00">eiquadprog</text>
<text text-anchor="middle" x="948.37" y="-458.21" font-family="Times,serif" font-size="14.00">1.2.6</text>
<text text-anchor="middle" x="948.37" y="-441.71" font-family="Times,serif" font-size="14.00">py3</text>
</a>
</g>
</g>
<!-- cmeel&#45;&gt;eiquadprog -->
<g id="edge34" class="edge">
<title>cmeel&#45;&gt;eiquadprog</title>
<path fill="none" stroke="black" d="M1190.72,-672.94C1149.08,-669.71 1077.98,-658.64 1031.37,-621.23 997.12,-593.75 975.29,-548.26 962.66,-513.3"/>
<polygon fill="black" stroke="black" points="965.77,-512.58 959.18,-504.28 959.15,-514.88 965.77,-512.58"/>
</g>
<!-- crocoddyl -->
<g id="node18" class="node">
<title>crocoddyl</title>
<g id="a_node18"><a xlink:href="https://github.com/cmake-wheel/crocoddyl" xlink:title="crocoddyl&#10;2.0.0">
<ellipse fill="none" stroke="black" cx="88.37" cy="-28.99" rx="49.5" ry="28.99"/>
<text text-anchor="middle" x="88.37" y="-32.19" font-family="Times,serif" font-size="14.00">crocoddyl</text>
<text text-anchor="middle" x="88.37" y="-15.69" font-family="Times,serif" font-size="14.00">2.0.0</text>
</a>
</g>
</g>
<!-- cmeel&#45;&gt;crocoddyl -->
<g id="edge29" class="edge">
<title>cmeel&#45;&gt;crocoddyl</title>
<path fill="none" stroke="black" d="M1190.86,-672.9C1007.54,-665.54 133.85,-630.06 123.37,-621.23 68.69,-575.2 88.37,-535.74 88.37,-464.26 88.37,-464.26 88.37,-464.26 88.37,-239.29 88.37,-180.04 88.37,-111.36 88.37,-69.3"/>
<polygon fill="black" stroke="black" points="91.87,-69.43 88.37,-59.43 84.87,-69.43 91.87,-69.43"/>
</g>
<!-- ndcurves -->
<g id="node20" class="node">
<title>ndcurves</title>
<g id="a_node20"><a xlink:href="https://github.com/cmake-wheel/ndcurves" xlink:title="ndcurves&#10;1.3.0">
<ellipse fill="none" stroke="black" cx="1414.37" cy="-134.64" rx="45.79" ry="28.99"/>
<text text-anchor="middle" x="1414.37" y="-137.84" font-family="Times,serif" font-size="14.00">ndcurves</text>
<text text-anchor="middle" x="1414.37" y="-121.34" font-family="Times,serif" font-size="14.00">1.3.0</text>
</a>
</g>
</g>
<!-- cmeel&#45;&gt;ndcurves -->
<g id="edge35" class="edge">
<title>cmeel&#45;&gt;ndcurves</title>
<path fill="none" stroke="black" d="M1258.06,-674.64C1345.6,-674.98 1577.21,-671.03 1631.37,-621.23 1683.91,-572.92 1665.37,-535.64 1665.37,-464.26 1665.37,-464.26 1665.37,-464.26 1665.37,-344.94 1665.37,-241.57 1538.25,-179.33 1464.94,-152.03"/>
<polygon fill="black" stroke="black" points="1466.57,-148.53 1455.97,-148.41 1464.18,-155.11 1466.57,-148.53"/>
</g>
<!-- cmeel&#45;cppad -->
<g id="node21" class="node">
<title>cmeel&#45;cppad</title>
<g id="a_node21"><a xlink:href="https://github.com/cmake-wheel/cmeel-cppad" xlink:title="cmeel&#45;cppad&#10;20230000.0&#10;py3">
<ellipse fill="none" stroke="black" cx="1754.37" cy="-580.58" rx="60.63" ry="40.66"/>
<text text-anchor="middle" x="1754.37" y="-592.03" font-family="Times,serif" font-size="14.00">cmeel&#45;cppad</text>
<text text-anchor="middle" x="1754.37" y="-575.53" font-family="Times,serif" font-size="14.00">20230000.0</text>
<text text-anchor="middle" x="1754.37" y="-559.03" font-family="Times,serif" font-size="14.00">py3</text>
</a>
</g>
</g>
<!-- cmeel&#45;&gt;cmeel&#45;cppad -->
<g id="edge37" class="edge">
<title>cmeel&#45;&gt;cmeel&#45;cppad</title>
<path fill="none" stroke="black" d="M1258.07,-674.51C1334.72,-674.24 1527.28,-668.48 1679.37,-621.23 1686.27,-619.09 1693.27,-616.31 1700.1,-613.22"/>
<polygon fill="black" stroke="black" points="1701.42,-615.99 1708.93,-608.51 1698.4,-609.68 1701.42,-615.99"/>
</g>
<!-- cmeel&#45;cppadcodegen -->
<g id="node22" class="node">
<title>cmeel&#45;cppadcodegen</title>
<g id="a_node22"><a xlink:href="https://github.com/cmake-wheel/cmeel-cppadcodegen" xlink:title="cmeel&#45;cppadcodegen&#10;2.4.3&#10;any">
<ellipse fill="none" stroke="black" cx="1814.37" cy="-463.26" rx="92.45" ry="40.66"/>
<text text-anchor="middle" x="1814.37" y="-474.71" font-family="Times,serif" font-size="14.00">cmeel&#45;cppadcodegen</text>
<text text-anchor="middle" x="1814.37" y="-458.21" font-family="Times,serif" font-size="14.00">2.4.3</text>
<text text-anchor="middle" x="1814.37" y="-441.71" font-family="Times,serif" font-size="14.00">any</text>
</a>
</g>
</g>
<!-- cmeel&#45;&gt;cmeel&#45;cppadcodegen -->
<g id="edge39" class="edge">
<title>cmeel&#45;&gt;cmeel&#45;cppadcodegen</title>
<path fill="none" stroke="black" d="M1257.97,-673.85C1378.78,-672.13 1785.93,-663.22 1824.37,-621.23 1850.27,-592.94 1844.74,-548.44 1834.47,-514.03"/>
<polygon fill="black" stroke="black" points="1837.54,-513.16 1831.16,-504.7 1830.88,-515.29 1837.54,-513.16"/>
</g>
<!-- pin3&#45;slam -->
<g id="node23" class="node">
<title>pin3&#45;slam</title>
<g id="a_node23"><a xlink:href="https://github.com/cmake-wheel/pin3-slam" xlink:title="pin3&#45;slam&#10;1.6">
<ellipse fill="none" stroke="black" cx="540.37" cy="-240.29" rx="50.03" ry="28.99"/>
<text text-anchor="middle" x="540.37" y="-243.49" font-family="Times,serif" font-size="14.00">pin3&#45;slam</text>
<text text-anchor="middle" x="540.37" y="-226.99" font-family="Times,serif" font-size="14.00">1.6</text>
</a>
</g>
</g>
<!-- cmeel&#45;&gt;pin3&#45;slam -->
<g id="edge40" class="edge">
<title>cmeel&#45;&gt;pin3&#45;slam</title>
<path fill="none" stroke="black" d="M1190.83,-672.79C1051.48,-666.67 522.11,-642.25 450.37,-621.23 346.27,-590.75 291.64,-597.25 236.37,-503.92 190.65,-426.72 206.95,-366.68 272.37,-305.28 302.08,-277.39 410.96,-258.28 480.46,-248.62"/>
<polygon fill="black" stroke="black" points="480.82,-251.96 490.26,-247.15 479.88,-245.03 480.82,-251.96"/>
</g>
<!-- cmeel&#45;simde -->
<g id="node25" class="node">
<title>cmeel&#45;simde</title>
<g id="a_node25"><a xlink:href="https://github.com/cmake-wheel/cmeel-simde" xlink:title="cmeel&#45;simde&#10;0.7.2&#10;any">
<ellipse fill="none" stroke="black" cx="1538.37" cy="-580.58" rx="61.16" ry="40.66"/>
<text text-anchor="middle" x="1538.37" y="-592.03" font-family="Times,serif" font-size="14.00">cmeel&#45;simde</text>
<text text-anchor="middle" x="1538.37" y="-575.53" font-family="Times,serif" font-size="14.00">0.7.2</text>
<text text-anchor="middle" x="1538.37" y="-559.03" font-family="Times,serif" font-size="14.00">any</text>
</a>
</g>
</g>
<!-- cmeel&#45;&gt;cmeel&#45;simde -->
<g id="edge49" class="edge">
<title>cmeel&#45;&gt;cmeel&#45;simde</title>
<path fill="none" stroke="black" d="M1256.46,-669.92C1303.07,-663.03 1391.76,-647.56 1463.37,-621.23 1469.96,-618.81 1476.7,-615.91 1483.31,-612.8"/>
<polygon fill="black" stroke="black" points="1484.41,-615.67 1491.85,-608.12 1481.33,-609.38 1484.41,-615.67"/>
</g>
<!-- cmeel&#45;lapack -->
<g id="node26" class="node">
<title>cmeel&#45;lapack</title>
<g id="a_node26"><a xlink:href="https://github.com/cmake-wheel/cmeel-lapack" xlink:title="cmeel&#45;lapack&#10;3.11.0&#10;py3">
<ellipse fill="none" stroke="black" cx="1934.37" cy="-580.58" rx="62.76" ry="40.66"/>
<text text-anchor="middle" x="1934.37" y="-592.03" font-family="Times,serif" font-size="14.00">cmeel&#45;lapack</text>
<text text-anchor="middle" x="1934.37" y="-575.53" font-family="Times,serif" font-size="14.00">3.11.0</text>
<text text-anchor="middle" x="1934.37" y="-559.03" font-family="Times,serif" font-size="14.00">py3</text>
</a>
</g>
</g>
<!-- cmeel&#45;&gt;cmeel&#45;lapack -->
<g id="edge50" class="edge">
<title>cmeel&#45;&gt;cmeel&#45;lapack</title>
<path fill="none" stroke="black" d="M1257.91,-673.15C1371.81,-669.2 1743.02,-654.06 1857.37,-621.23 1864.62,-619.15 1871.99,-616.36 1879.15,-613.22"/>
<polygon fill="black" stroke="black" points="1880.16,-616.15 1887.75,-608.76 1877.21,-609.8 1880.16,-616.15"/>
</g>
<!-- cmeel&#45;yaml&#45;cpp -->
<g id="node27" class="node">
<title>cmeel&#45;yaml&#45;cpp</title>
<g id="a_node27"><a xlink:href="https://github.com/cmake-wheel/cmeel-yaml-cpp" xlink:title="cmeel&#45;yaml&#45;cpp&#10;0.7.0&#10;py3">
<ellipse fill="none" stroke="black" cx="2089.37" cy="-580.58" rx="74.42" ry="40.66"/>
<text text-anchor="middle" x="2089.37" y="-592.03" font-family="Times,serif" font-size="14.00">cmeel&#45;yaml&#45;cpp</text>
<text text-anchor="middle" x="2089.37" y="-575.53" font-family="Times,serif" font-size="14.00">0.7.0</text>
<text text-anchor="middle" x="2089.37" y="-559.03" font-family="Times,serif" font-size="14.00">py3</text>
</a>
</g>
</g>
<!-- cmeel&#45;&gt;cmeel&#45;yaml&#45;cpp -->
<g id="edge51" class="edge">
<title>cmeel&#45;&gt;cmeel&#45;yaml&#45;cpp</title>
<path fill="none" stroke="black" d="M1257.82,-673.64C1388.12,-671.07 1861.59,-659.24 2006.37,-621.23 2013.32,-619.41 2020.4,-617 2027.33,-614.27"/>
<polygon fill="black" stroke="black" points="2028.5,-617.16 2036.37,-610.06 2025.79,-610.7 2028.5,-617.16"/>
</g>
<!-- cmeel&#45;openblas -->
<g id="node28" class="node">
<title>cmeel&#45;openblas</title>
<g id="a_node28"><a xlink:href="https://github.com/cmake-wheel/cmeel-openblas" xlink:title="cmeel&#45;openblas&#10;0.3.23&#10;py3">
<ellipse fill="none" stroke="black" cx="2253.37" cy="-580.58" rx="71.77" ry="40.66"/>
<text text-anchor="middle" x="2253.37" y="-592.03" font-family="Times,serif" font-size="14.00">cmeel&#45;openblas</text>
<text text-anchor="middle" x="2253.37" y="-575.53" font-family="Times,serif" font-size="14.00">0.3.23</text>
<text text-anchor="middle" x="2253.37" y="-559.03" font-family="Times,serif" font-size="14.00">py3</text>
</a>
</g>
</g>
<!-- cmeel&#45;&gt;cmeel&#45;openblas -->
<g id="edge52" class="edge">
<title>cmeel&#45;&gt;cmeel&#45;openblas</title>
<path fill="none" stroke="black" d="M1258.2,-674.14C1405.86,-673.44 1994.34,-667.75 2172.37,-621.23 2179.29,-619.43 2186.32,-617 2193.2,-614.23"/>
<polygon fill="black" stroke="black" points="2194.33,-617.13 2202.14,-609.97 2191.57,-610.7 2194.33,-617.13"/>
</g>
<!-- proxsuite -->
<g id="node29" class="node">
<title>proxsuite</title>
<g id="a_node29"><a xlink:href="https://github.com/Simple-Robotics/proxsuite" xlink:title="proxsuite&#10;0.4.0">
<ellipse fill="none" stroke="black" cx="1590.37" cy="-463.26" rx="46.85" ry="28.99"/>
<text text-anchor="middle" x="1590.37" y="-466.46" font-family="Times,serif" font-size="14.00">proxsuite</text>
<text text-anchor="middle" x="1590.37" y="-449.96" font-family="Times,serif" font-size="14.00">0.4.0</text>
</a>
</g>
</g>
<!-- cmeel&#45;&gt;proxsuite -->
<g id="edge53" class="edge">
<title>cmeel&#45;&gt;proxsuite</title>
<path fill="none" stroke="black" d="M1258,-674.95C1343,-675.95 1562.94,-673.37 1608.37,-621.23 1636.91,-588.48 1623.25,-536.18 1608.68,-501.05"/>
<polygon fill="black" stroke="black" points="1611.58,-499.95 1604.38,-492.18 1605.17,-502.75 1611.58,-499.95"/>
</g>
<!-- cmeel&#45;boost&#45;&gt;eigenpy -->
<g id="edge5" class="edge">
<title>cmeel&#45;boost&#45;&gt;eigenpy</title>
<path fill="none" stroke="black" d="M793.84,-567.29C848.77,-553.87 937.18,-530.68 1011.37,-503.92 1026.49,-498.46 1042.66,-491.59 1057,-485.1"/>
<polygon fill="black" stroke="black" points="1057.98,-488.05 1065.61,-480.7 1055.06,-481.69 1057.98,-488.05"/>
</g>
<!-- cmeel&#45;boost&#45;&gt;eiquadprog -->
<g id="edge32" class="edge">
<title>cmeel&#45;boost&#45;&gt;eiquadprog</title>
<path fill="none" stroke="black" d="M779.33,-558.43C812.01,-540.22 859.5,-513.77 895.82,-493.53"/>
<polygon fill="black" stroke="black" points="897.24,-496.19 904.28,-488.26 893.84,-490.07 897.24,-496.19"/>
</g>
<!-- cmeel&#45;boost&#45;&gt;pin3&#45;slam -->
<g id="edge41" class="edge">
<title>cmeel&#45;boost&#45;&gt;pin3&#45;slam</title>
<path fill="none" stroke="black" d="M682.79,-579.45C566.55,-577.81 313.25,-566.92 259.37,-503.92 173.98,-404.08 385.81,-302.58 488.44,-260.94"/>
<polygon fill="black" stroke="black" points="489.64,-263.84 497.62,-256.87 487.03,-257.34 489.64,-263.84"/>
</g>
<!-- numpy -->
<g id="node4" class="node">
<title>numpy</title>
<ellipse fill="none" stroke="black" cx="741.37" cy="-675.23" rx="37.02" ry="18"/>
<text text-anchor="middle" x="741.37" y="-670.18" font-family="Times,serif" font-size="14.00">numpy</text>
</g>
<!-- numpy&#45;&gt;cmeel&#45;boost -->
<g id="edge3" class="edge">
<title>numpy&#45;&gt;cmeel&#45;boost</title>
<path fill="none" stroke="black" d="M741.37,-656.81C741.37,-646.59 741.37,-633.25 741.37,-620.64"/>
<polygon fill="black" stroke="black" points="744.87,-620.85 741.37,-610.85 737.87,-620.85 744.87,-620.85"/>
</g>
<!-- cmeel&#45;eigen&#45;&gt;eigenpy -->
<g id="edge6" class="edge">
<title>cmeel&#45;eigen&#45;&gt;eigenpy</title>
<path fill="none" stroke="black" d="M1099.71,-539.57C1099.82,-527.83 1099.93,-515.02 1100.03,-503.35"/>
<polygon fill="black" stroke="black" points="1103.53,-503.61 1100.12,-493.58 1096.54,-503.55 1103.53,-503.61"/>
</g>
<!-- cmeel&#45;eigen&#45;&gt;eiquadprog -->
<g id="edge33" class="edge">
<title>cmeel&#45;eigen&#45;&gt;eiquadprog</title>
<path fill="none" stroke="black" d="M1060.48,-549.88C1040.36,-534.51 1015.66,-515.65 994.57,-499.54"/>
<polygon fill="black" stroke="black" points="997.15,-496.35 987.08,-493.06 992.9,-501.91 997.15,-496.35"/>
</g>
<!-- cmeel&#45;eigen&#45;&gt;pin3&#45;slam -->
<g id="edge43" class="edge">
<title>cmeel&#45;eigen&#45;&gt;pin3&#45;slam</title>
<path fill="none" stroke="black" d="M1074.1,-543.69C1065.82,-531.33 1056.83,-517.24 1049.37,-503.92 1029.87,-469.11 1039.88,-450.5 1011.37,-422.6 894.56,-308.31 697.95,-264.32 599.82,-248.85"/>
<polygon fill="black" stroke="black" points="600.63,-245.28 590.21,-247.23 599.57,-252.2 600.63,-245.28"/>
</g>
<!-- cmeel&#45;eigen&#45;&gt;proxsuite -->
<g id="edge54" class="edge">
<title>cmeel&#45;eigen&#45;&gt;proxsuite</title>
<path fill="none" stroke="black" d="M1155.98,-569.17C1227.01,-555.77 1352.37,-530.96 1458.37,-503.92 1485.13,-497.09 1514.59,-488.36 1538.88,-480.83"/>
<polygon fill="black" stroke="black" points="1539.79,-483.89 1548.3,-477.57 1537.71,-477.21 1539.79,-483.89"/>
</g>
<!-- eigenpy&#45;&gt;hpp&#45;fcl -->
<g id="edge11" class="edge">
<title>eigenpy&#45;&gt;hpp&#45;fcl</title>
<path fill="none" stroke="black" d="M1117.9,-436.67C1129.13,-420.28 1143.82,-398.83 1156.03,-381.01"/>
<polygon fill="black" stroke="black" points="1159.39,-383.29 1162.16,-373.07 1153.62,-379.34 1159.39,-383.29"/>
</g>
<!-- hpp&#45;fcl&#45;&gt;pin -->
<g id="edge23" class="edge">
<title>hpp&#45;fcl&#45;&gt;pin</title>
<path fill="none" stroke="black" d="M1179.09,-316.62C1178.99,-305.42 1178.86,-292.37 1178.74,-280.3"/>
<polygon fill="black" stroke="black" points="1182.24,-280.55 1178.64,-270.58 1175.24,-280.61 1182.24,-280.55"/>
</g>
<!-- hpp&#45;fcl&#45;&gt;pin3&#45;slam -->
<g id="edge47" class="edge">
<title>hpp&#45;fcl&#45;&gt;pin3&#45;slam</title>
<path fill="none" stroke="black" d="M1144.23,-332.94C1117.21,-324.13 1078.8,-312.48 1044.37,-305.28 886.16,-272.22 696.21,-253.7 601.02,-245.85"/>
<polygon fill="black" stroke="black" points="601.42,-242.29 591.16,-244.97 600.85,-249.26 601.42,-242.29"/>
</g>
<!-- cmeel&#45;assimp&#45;&gt;hpp&#45;fcl -->
<g id="edge8" class="edge">
<title>cmeel&#45;assimp&#45;&gt;hpp&#45;fcl</title>
<path fill="none" stroke="black" d="M1209.26,-423.54C1204.31,-410.86 1198.83,-396.81 1193.92,-384.24"/>
<polygon fill="black" stroke="black" points="1196.86,-383.14 1189.96,-375.09 1190.34,-385.68 1196.86,-383.14"/>
</g>
<!-- cmeel&#45;octomap&#45;&gt;hpp&#45;fcl -->
<g id="edge9" class="edge">
<title>cmeel&#45;octomap&#45;&gt;hpp&#45;fcl</title>
<path fill="none" stroke="black" d="M1328.92,-433.61C1295.02,-413.96 1250.63,-388.24 1219.04,-369.93"/>
<polygon fill="black" stroke="black" points="1221.08,-366.49 1210.67,-364.5 1217.57,-372.55 1221.08,-366.49"/>
</g>
<!-- cmeel&#45;urdfdom&#45;headers&#45;&gt;cmeel&#45;urdfdom -->
<g id="edge17" class="edge">
<title>cmeel&#45;urdfdom&#45;headers&#45;&gt;cmeel&#45;urdfdom</title>
<path fill="none" stroke="black" d="M703,-424.18C694.38,-413.72 684.97,-402.29 676.08,-391.51"/>
<polygon fill="black" stroke="black" points="678.15,-389.52 669.09,-384.02 672.75,-393.97 678.15,-389.52"/>
</g>
<!-- cmeel&#45;urdfdom&#45;headers&#45;&gt;pin3&#45;slam -->
<g id="edge46" class="edge">
<title>cmeel&#45;urdfdom&#45;headers&#45;&gt;pin3&#45;slam</title>
<path fill="none" stroke="black" d="M741.53,-422.53C745.43,-387.95 745.09,-338.34 719.37,-305.28 691.24,-269.14 641,-253.38 600.9,-246.52"/>
<polygon fill="black" stroke="black" points="601.56,-242.93 591.15,-244.85 600.49,-249.84 601.56,-242.93"/>
</g>
<!-- cmeel&#45;urdfdom&#45;&gt;pin -->
<g id="edge21" class="edge">
<title>cmeel&#45;urdfdom&#45;&gt;pin</title>
<path fill="none" stroke="black" d="M706.81,-331.97C818.22,-310.55 1037.79,-268.33 1132.78,-250.06"/>
<polygon fill="black" stroke="black" points="1133.31,-253.33 1142.47,-248 1131.99,-246.45 1133.31,-253.33"/>
</g>
<!-- cmeel&#45;urdfdom&#45;&gt;pin3&#45;slam -->
<g id="edge45" class="edge">
<title>cmeel&#45;urdfdom&#45;&gt;pin3&#45;slam</title>
<path fill="none" stroke="black" d="M605.85,-309.85C594.73,-298.21 582.4,-285.3 571.47,-273.86"/>
<polygon fill="black" stroke="black" points="574.6,-272.01 565.16,-267.2 569.53,-276.85 574.6,-272.01"/>
</g>
<!-- cmeel&#45;console&#45;bridge&#45;&gt;cmeel&#45;urdfdom -->
<g id="edge15" class="edge">
<title>cmeel&#45;console&#45;bridge&#45;&gt;cmeel&#45;urdfdom</title>
<path fill="none" stroke="black" d="M430.53,-434.2C473.67,-416.17 529.47,-392.86 572.54,-374.86"/>
<polygon fill="black" stroke="black" points="573.76,-377.73 581.64,-370.64 571.06,-371.27 573.76,-377.73"/>
</g>
<!-- cmeel&#45;console&#45;bridge&#45;&gt;pin3&#45;slam -->
<g id="edge42" class="edge">
<title>cmeel&#45;console&#45;bridge&#45;&gt;pin3&#45;slam</title>
<path fill="none" stroke="black" d="M426.5,-432.63C446.79,-420.65 467.98,-405.2 483.37,-386.6 509.09,-355.5 524.18,-311.4 532.3,-279.96"/>
<polygon fill="black" stroke="black" points="535.9,-280.95 534.88,-270.41 529.1,-279.28 535.9,-280.95"/>
</g>
<!-- cmeel&#45;tinyxml&#45;&gt;cmeel&#45;urdfdom -->
<g id="edge16" class="edge">
<title>cmeel&#45;tinyxml&#45;&gt;cmeel&#45;urdfdom</title>
<path fill="none" stroke="black" d="M573.91,-426.4C583.02,-415.34 593.17,-403.01 602.71,-391.44"/>
<polygon fill="black" stroke="black" points="605.86,-394.12 609.52,-384.17 600.46,-389.66 605.86,-394.12"/>
</g>
<!-- cmeel&#45;tinyxml&#45;&gt;pin3&#45;slam -->
<g id="edge44" class="edge">
<title>cmeel&#45;tinyxml&#45;&gt;pin3&#45;slam</title>
<path fill="none" stroke="black" d="M543.64,-422.24C542.92,-382.09 541.8,-320.61 541.08,-280.68"/>
<polygon fill="black" stroke="black" points="544.56,-280.71 540.88,-270.77 537.56,-280.84 544.56,-280.71"/>
</g>
<!-- pin&#45;&gt;example&#45;robot&#45;data -->
<g id="edge25" class="edge">
<title>pin&#45;&gt;example&#45;robot&#45;data</title>
<path fill="none" stroke="black" d="M1142.8,-235.51C1005.71,-220.94 508.76,-168.11 298.44,-145.75"/>
<polygon fill="black" stroke="black" points="299.04,-142.19 288.73,-144.61 298.3,-149.15 299.04,-142.19"/>
</g>
<!-- pin&#45;&gt;tsid -->
<g id="edge28" class="edge">
<title>pin&#45;&gt;tsid</title>
<path fill="none" stroke="black" d="M1155.31,-217.56C1138.59,-201.81 1115.85,-180.38 1097.82,-163.39"/>
<polygon fill="black" stroke="black" points="1100.58,-161.24 1090.9,-156.93 1095.78,-166.34 1100.58,-161.24"/>
</g>
<!-- pin&#45;&gt;ndcurves -->
<g id="edge36" class="edge">
<title>pin&#45;&gt;ndcurves</title>
<path fill="none" stroke="black" d="M1209.71,-225.53C1250.01,-207.83 1320.36,-176.93 1367.16,-156.38"/>
<polygon fill="black" stroke="black" points="1368.31,-159.25 1376.06,-152.03 1365.49,-152.84 1368.31,-159.25"/>
</g>
<!-- example&#45;robot&#45;data&#45;&gt;crocoddyl -->
<g id="edge30" class="edge">
<title>example&#45;robot&#45;data&#45;&gt;crocoddyl</title>
<path fill="none" stroke="black" d="M164.11,-98.26C150.64,-86.12 135.68,-72.63 122.64,-60.88"/>
<polygon fill="black" stroke="black" points="125.56,-58.9 115.79,-54.81 120.88,-64.1 125.56,-58.9"/>
</g>
<!-- eiquadprog&#45;&gt;tsid -->
<g id="edge27" class="edge">
<title>eiquadprog&#45;&gt;tsid</title>
<path fill="none" stroke="black" d="M962.49,-423.83C985.74,-360.55 1031.79,-235.2 1054.72,-172.77"/>
<polygon fill="black" stroke="black" points="1058.3,-174.19 1058.46,-163.6 1051.73,-171.77 1058.3,-174.19"/>
</g>
<!-- scipy -->
<g id="node19" class="node">
<title>scipy</title>
<ellipse fill="none" stroke="black" cx="30.37" cy="-134.64" rx="30.37" ry="18"/>
<text text-anchor="middle" x="30.37" y="-129.59" font-family="Times,serif" font-size="14.00">scipy</text>
</g>
<!-- scipy&#45;&gt;crocoddyl -->
<g id="edge31" class="edge">
<title>scipy&#45;&gt;crocoddyl</title>
<path fill="none" stroke="black" d="M39.43,-117.45C47.06,-103.8 58.27,-83.77 68.04,-66.33"/>
<polygon fill="black" stroke="black" points="71.45,-68.39 73.28,-57.95 65.34,-64.97 71.45,-68.39"/>
</g>
<!-- cmeel&#45;cppad&#45;&gt;cmeel&#45;cppadcodegen -->
<g id="edge38" class="edge">
<title>cmeel&#45;cppad&#45;&gt;cmeel&#45;cppadcodegen</title>
<path fill="none" stroke="black" d="M1774.01,-541.82C1778.83,-532.56 1784.06,-522.51 1789.1,-512.82"/>
<polygon fill="black" stroke="black" points="1792.55,-514.78 1794.06,-504.29 1786.34,-511.55 1792.55,-514.78"/>
</g>
<!-- casadi -->
<g id="node24" class="node">
<title>casadi</title>
<ellipse fill="none" stroke="black" cx="440.37" cy="-345.94" rx="33.95" ry="18"/>
<text text-anchor="middle" x="440.37" y="-340.89" font-family="Times,serif" font-size="14.00">casadi</text>
</g>
<!-- casadi&#45;&gt;pin3&#45;slam -->
<g id="edge48" class="edge">
<title>casadi&#45;&gt;pin3&#45;slam</title>
<path fill="none" stroke="black" d="M455.12,-329.65C469.29,-314.96 491.14,-292.32 509.17,-273.63"/>
<polygon fill="black" stroke="black" points="511.2,-276.53 515.63,-266.9 506.16,-271.67 511.2,-276.53"/>
</g>
<!-- cmeel&#45;simde&#45;&gt;proxsuite -->
<g id="edge55" class="edge">
<title>cmeel&#45;simde&#45;&gt;proxsuite</title>
<path fill="none" stroke="black" d="M1555.68,-541.18C1561.46,-528.36 1567.89,-514.1 1573.63,-501.38"/>
<polygon fill="black" stroke="black" points="1577.14,-503.11 1578.06,-492.56 1570.75,-500.24 1577.14,-503.11"/>
</g>
</g>
</svg>
